<?xml version="1.0" encoding="utf-8"?>
<svg xmlns="http://www.w3.org/2000/svg" height="1569" viewBox="0 0 1569 1569" width="1569">
<defs>
<radialGradient cx="-98.00" cy="1670.55" gradientUnits="userSpaceOnUse" id="grad12" r="407.51">
<stop offset="0.3333" stop-color="#ffffff"/>
<stop offset="0.6000" stop-color="#ffffff"/>
<stop offset="0.8000" stop-color="#fbfbfc"/>
<stop offset="0.8667" stop-color="#f5f6f7"/>
<stop offset="0.9333" stop-color="#e5e8eb"/>
<stop offset="1.0000" stop-color="#cad0d7"/>
</radialGradient>
<radialGradient cx="1666.00" cy="1667.75" gradientUnits="userSpaceOnUse" id="grad11" r="397.03">
<stop offset="0.3333" stop-color="#ffffff"/>
<stop offset="0.6000" stop-color="#ffffff"/>
<stop offset="0.8000" stop-color="#fbfcfc"/>
<stop offset="0.8667" stop-color="#f7f8f9"/>
<stop offset="0.9333" stop-color="#ebecef"/>
<stop offset="1.0000" stop-color="#d6d9de"/>
</radialGradient>
<linearGradient gradientUnits="userSpaceOnUse" id="grad1" x1="1180.48" x2="1308.97" y1="546.10" y2="615.06">
<stop offset="0.0000" stop-color="#6c7685"/>
<stop offset="0.0667" stop-color="#687081"/>
<stop offset="0.3333" stop-color="#646c7c"/>
<stop offset="0.7333" stop-color="#666e7f"/>
<stop offset="0.8667" stop-color="#626a7c"/>
<stop offset="1.0000" stop-color="#636c7d"/>
</linearGradient>
</defs>
<rect fill="#6a7486" height="1569" width="1569"/>
<path d="M1563.51 455.7 c-1.72 .93 -5.57 1.67 -9.05 1.73 -4.64 .09 -6.73 .64 -8.89 2.34 -1.56 1.23 -3.39 2.23 -4.07 2.23 -1.86 0 -4.03 -3.05 -3.67 -5.15 .6 -3.55 -3.58 -1.19 -6.32 3.57 -.72 1.25 -2.71 1.89 -7 2.24 -6.64 .55 -8.5 1.99 -8.5 6.58 0 1.94 -1.02 3.8 -3.18 5.77 -2.88 2.63 -3.07 3.15 -2 5.49 1.9 4.18 1.53 5.62 -1.26 4.92 -3.46 -.87 -4.83 .2 -3.48 2.72 .79 1.47 1.72 1.87 3.39 1.45 1.42 -.36 2.78 -.01 3.54 .91 1.26 1.51 .56 3.17 -2.5 5.99 -.6 .55 -2.06 2.4 -3.26 4.1 -2 2.85 -2.77 3.15 -9.33 3.7 -3.94 .33 -7.44 .88 -7.79 1.23 -.35 .35 .61 1.53 2.12 2.63 3.26 2.38 3.53 3.84 .7 3.84 -1.13 0 -3.43 .72 -5.13 1.59 -2.81 1.45 -8.43 1.6 -12.8 .34 -2.88 -.83 -4.01 -2.72 -3.42 -5.7 .57 -2.83 .43 -2.96 -3.76 -3.52 -2.39 -.32 -4.7 -.24 -5.13 .19 -.43 .43 .13 2.9 1.24 5.5 l2.02 4.72 -2.64 2.44 c-1.45 1.34 -3.47 2.44 -4.5 2.44 -1.02 0 -2.84 1.12 -4.03 2.5 -1.2 1.38 -2.96 2.5 -3.91 2.5 -3.48 0 -4.9 1.21 -4.9 4.17 0 1.63 -.5 3.88 -1.1 5.01 -1.46 2.72 1.22 5.42 6.28 6.34 5.05 .92 7.09 -1.54 7.23 -8.69 l.1 -5.33 7 .26 c7.07 .26 14.77 2.84 14.15 4.74 -.18 .55 -3.46 1 -7.28 1 -8.4 0 -12.38 1.98 -11.65 5.81 .26 1.34 -.25 3.82 -1.13 5.51 -.88 1.69 -1.59 3.97 -1.59 5.07 0 3.22 -1.85 3.46 -5.45 .71 l-3.37 -2.57 -4.59 2.23 c-4.99 2.42 -6.28 4.56 -4.64 7.63 1.85 3.45 1.22 4.1 -3.89 4.1 -5.33 0 -6.91 1.05 -4.55 3.01 3.89 3.23 .02 8.95 -6.55 9.69 -3.66 .41 -4.81 .12 -6.37 -1.6 -2.47 -2.73 -2.87 -2.68 -7.06 1 -2.87 2.52 -3.53 3.81 -3.53 6.88 0 4.83 -1.81 6.54 -4.74 4.49 -2.25 -1.58 -5.61 -.96 -4.94 .9 .82 2.28 -1.39 4.63 -4.36 4.63 -3.47 0 -3.81 1.54 -.88 4.07 2.19 1.9 2.28 4.97 .18 5.67 -.68 .23 -1.76 -.75 -2.41 -2.17 -1.36 -3 -2.5 -3.21 -5 -.95 -1.66 1.5 -2 1.5 -4.21 .05 -2.63 -1.72 -3.64 -1.32 -3.64 1.42 0 .98 -.47 2.06 -1.04 2.42 -1.61 1 -3.81 -1.37 -3.25 -3.51 .35 -1.34 -.81 -3.13 -3.85 -5.97 -4.65 -4.34 -7.43 -4.82 -9.25 -1.58 -.61 1.08 -2.09 2.78 -3.29 3.77 -1.2 1 -2.33 3.03 -2.5 4.52 -.2 1.7 -1.25 3.17 -2.81 3.94 -3.03 1.5 -6.19 5.2 -5.45 6.39 .29 .48 2.54 1.75 4.99 2.84 5.5 2.43 6.32 5.64 1.21 4.72 -5.81 -1.04 -8.53 -1.57 -10.18 -1.4 -1.65 .18 -2.24 1.06 -3.78 2.88 l-2.87 3.38 -2.13 -2.71 -2.13 -2.71 -4.85 2.71 c-4.76 2.66 -4.9 2.68 -7.92 .96 -3.52 -2.01 -4.89 -1.57 -4.91 1.56 -0 1.21 -1.6 3.87 -3.55 5.92 -2.84 3 -3.34 4.09 -2.55 5.58 3.33 6.22 1.79 18.5 -3.09 24.71 -1.14 1.45 -9.32 7.48 -18.19 13.41 -8.87 5.93 -16.68 11.45 -17.37 12.28 -1.59 1.92 -.39 3 10.25 9.23 22.46 13.15 24.38 14.51 27.13 19.2 4.12 7.03 4.39 16.99 .66 24.38 -2.91 5.75 -3.67 6.37 -22.68 18.26 -4.18 2.62 -7.61 5.13 -7.61 5.6 0 1.52 3.74 4.26 15.69 11.5 10.77 6.52 12.07 7.63 14.71 12.56 3.93 7.34 4.07 16.28 .36 23.59 -2.89 5.7 -4.28 7.06 -11.25 10.97 -2.75 1.54 -6.01 3.72 -7.24 4.83 -2.86 2.59 -2.23 3.37 7.88 9.85 6.43 4.12 8.17 5.84 10.3 10.1 5.38 10.79 2.09 25.12 -6.99 30.48 -2.57 1.52 -6.68 4.27 -9.13 6.11 -4.36 3.28 -4.42 3.39 -2.64 5.36 1 1.11 3.89 3.06 6.42 4.35 10.41 5.28 14.84 11.67 14.86 21.45 .01 5.94 -3.17 14.21 -6.58 17.11 -1.04 .89 -17.42 11.41 -36.39 23.38 -18.97 11.98 -42.83 27.05 -53 33.5 -23.76 15.07 -99.05 62.7 -141.5 89.52 -18.15 11.47 -53.92 34.11 -79.5 50.32 -53.91 34.16 -164.66 104.03 -173.63 109.54 -15.13 9.29 -35.22 10.93 -50.2 4.1 -2.93 -1.34 -19.35 -10.93 -36.5 -21.31 -160.41 -97.16 -296.84 -179.49 -394.17 -237.88 -37.95 -22.77 -70.28 -42.6 -71.84 -44.09 -4.82 -4.57 -7.02 -9.93 -7.04 -17.21 -.04 -9.09 2.86 -14.15 11.25 -19.67 3.5 -2.3 7.47 -5.22 8.82 -6.49 l2.5 -2.23 -2.47 -2.01 c-1.36 -1.11 -5.21 -3.78 -8.52 -5.84 -9.91 -6.19 -14.1 -16.76 -11.26 -28.39 1.59 -6.52 3.93 -9.09 14.72 -16.21 5.04 -3.32 9.46 -6.53 9.84 -7.14 1 -1.62 -1.04 -3.61 -7.36 -7.19 -12.77 -7.25 -16.94 -12.61 -17.89 -23.02 -.29 -3.22 -.86 -6.06 -1.27 -6.31 -1.56 -.96 -5.98 3.68 -5.98 6.28 -0 1.44 -1.08 4.22 -2.4 6.18 -1.32 1.95 -2.69 5.63 -3.04 8.18 -.56 3.99 -.31 5.02 1.81 7.54 1.35 1.61 3.14 5.53 3.97 8.72 .83 3.19 2.18 6.55 2.99 7.46 1.49 1.68 4.67 8.67 4.67 10.28 -0 .48 -.56 .9 -1.25 .92 -1.67 .06 -5.52 6.22 -7.44 11.89 -.85 2.51 -2.5 5.92 -3.68 7.57 -2.18 3.07 -2.35 4.84 -1.83 18.5 .14 3.58 .22 7.4 .17 8.5 -.12 3.11 1.52 10.77 2.83 13.18 2.2 4.06 1.47 8.43 -1.89 11.24 -2.72 2.27 -2.96 2.88 -2.06 5.24 .69 1.8 .69 3.85 .01 6.32 -.8 2.9 -.69 4.15 .56 6.05 .86 1.32 1.56 3.87 1.55 5.68 -.03 5.27 9.82 26.33 14.57 31.16 4.65 4.73 12.59 10.62 14.31 10.62 2.38 -0 12.21 6.29 14.2 9.1 1.14 1.6 2.88 2.9 3.86 2.9 1.62 -0 3.65 1.32 12.22 7.94 1.46 1.13 3.48 2.34 4.5 2.71 3.75 1.34 20.52 11.59 24.1 14.73 2.59 2.27 3.06 7.38 .75 8.26 -2.25 .86 -1.89 4.36 .44 4.36 1.07 0 2.2 .42 2.51 .92 1.18 1.91 6.37 2.24 8.93 .56 3.26 -2.14 5.25 -1.42 11.19 4.04 2.68 2.46 5.4 4.48 6.03 4.48 2.53 0 3.78 2.91 2.38 5.53 -.73 1.36 -1.13 2.61 -.9 2.79 3.97 3.09 6.94 4.48 8.62 4.04 1.31 -.34 2.91 .3 4.47 1.8 1.34 1.28 3.3 2.83 4.35 3.43 l1.92 1.09 -2.13 1.14 c-2.01 1.08 -4.79 1.27 -15.32 1.07 -15.29 -.3 -25.42 .29 -27.25 1.57 -1.09 .76 -2.53 1.17 -3.2 .92 -1.9 -.73 -4.14 2.42 -2.73 3.84 .85 .85 1.63 .69 3.07 -.62 1.52 -1.38 2.37 -1.52 3.96 -.68 2.63 1.41 6.41 1.37 9.62 -.09 2.19 -1 3 -.85 5.51 1 3.61 2.67 4.54 2.69 7.67 .23 1.98 -1.55 3.45 -1.83 7.32 -1.37 2.77 .33 6.15 .12 7.9 -.49 4.39 -1.53 13.03 1.59 15.2 5.48 .87 1.56 2.55 2.98 3.74 3.15 2.39 .35 5.18 3.72 5.18 6.25 0 .89 -.9 2.44 -2 3.43 -2.42 2.19 -2.54 4.25 -.4 6.61 2.3 2.54 1.25 3.44 -5.73 4.92 -4.04 .86 -7.31 2.3 -9.41 4.14 -3.85 3.38 -4.58 3.46 -7.03 .75 -1.71 -1.89 -7.53 -4.92 -9.44 -4.92 -1.57 0 -1.78 2.84 -.41 5.49 1.88 3.62 1.8 4.25 -.64 5.03 -1.13 .36 -2.8 2.21 -3.7 4.11 -1.42 2.97 -1.48 3.9 -.46 6.61 1.06 2.8 .94 3.42 -.97 5.46 -2.53 2.69 -4.09 2.88 -6.21 .77 -1.38 -1.38 -1.94 -1.28 -5.57 1.01 -2.22 1.4 -4.04 3.2 -4.04 4 0 2.02 -3.68 3.96 -4.28 2.26 -.25 -.68 -.07 -1.98 .4 -2.89 1.52 -2.96 -1.42 -4.27 -6.64 -2.95 -3.27 .82 -5.09 .84 -6.52 .07 -1.1 -.59 -2.51 -.75 -3.13 -.36 -.63 .39 -2.87 .64 -4.98 .55 -2.11 -.08 -3.86 .18 -3.89 .59 -.03 .41 -.21 2.62 -.41 4.92 -.43 4.98 1.31 7.01 6.42 7.5 3.14 .3 3.54 .69 4.28 4.29 1.18 5.73 .5 6.71 -4.44 6.35 -3.73 -.27 -4.44 -.74 -6.19 -4.06 -2.63 -5.02 -5.76 -4.71 -6.76 .67 -.51 2.75 -2.57 3.07 -3.37 .54 -.38 -1.19 -.77 -4.39 -.87 -7.11 -.2 -5.49 -1.39 -6.8 -6.15 -6.83 -4.45 -.02 -7.78 2.63 -7.03 5.61 .34 1.34 -.06 3.67 -.9 5.29 -1.25 2.41 -2.33 3.01 -6.48 3.58 -2.74 .38 -5.36 .45 -5.82 .16 -.46 -.29 -1.5 -.1 -2.3 .43 -1.18 .77 -.83 1.46 1.88 3.72 2.79 2.33 3.28 3.34 3 6.24 l-.33 3.46 -5.5 .11 c-3.12 .06 -6.4 -.48 -7.57 -1.25 -4.16 -2.72 -15.93 2.72 -13.61 6.3 1.64 2.53 5.29 3.54 8.27 2.31 3.62 -1.5 6.79 .27 4.8 2.67 -.62 .75 -1.7 1.37 -2.39 1.37 -.69 0 -3.78 1.12 -6.88 2.49 -5.08 2.25 -5.62 2.79 -5.62 5.57 0 4.27 -2.95 3.58 -5.2 -1.21 -1.47 -3.12 -2.42 -3.8 -6.81 -4.85 -4.78 -1.15 -5.26 -1.08 -7.46 .99 -1.77 1.66 -2.78 1.97 -4.08 1.25 -1.88 -1.05 -5.44 -.5 -5.44 .84 0 1.25 -4.92 5.93 -6.23 5.93 -.63 0 -2.2 .99 -3.49 2.2 l-2.35 2.2 -2.51 -2.7 c-3.84 -4.14 -5.92 -3.55 -7.81 2.22 -.89 2.71 -1.36 5.58 -1.06 6.37 .3 .79 -.13 1.71 -.97 2.03 -1.74 .67 -4.9 -2.01 -4.04 -3.41 .31 -.51 -.3 -.92 -1.37 -.92 -2.57 0 -4.4 2.27 -3.57 4.43 .41 1.07 -.26 2.66 -1.86 4.38 -1.38 1.48 -3 3.65 -3.6 4.82 -.76 1.47 -2.43 2.33 -5.4 2.78 -2.37 .36 -5.74 1.52 -7.49 2.58 -1.85 1.13 -3.43 1.53 -3.78 .97 -.33 -.53 -2.07 -.96 -3.88 -.96 -2.02 0 -3.99 -.77 -5.1 -2 -2.45 -2.71 -3.18 -2.55 -6.71 1.43 -2.58 2.92 -3.39 3.29 -5.43 2.52 -1.64 -.62 -3.79 -.44 -6.82 .59 -2.43 .83 -4.79 1.44 -5.23 1.36 -2 -.34 -2.13 .36 -.75 4.27 1.45 4.12 1.17 7.83 -.61 7.83 -.5 0 -1.79 1.69 -2.86 3.75 -2.03 3.91 -8 9.25 -10.34 9.25 -.74 0 -1.86 -.51 -2.49 -1.13 -1.89 -1.89 -4.27 -.19 -4.27 3.04 0 1.63 -.45 3.25 -.99 3.59 -1.24 .77 -6.32 -4.18 -5.56 -5.41 .69 -1.11 -2.86 -9.6 -4.41 -10.56 -1.69 -1.04 -4.43 1.48 -3.08 2.83 1.82 1.82 1.21 4.64 -.99 4.64 -1.46 0 -2.58 -1.27 -3.96 -4.5 -1.92 -4.47 -3.27 -5.49 -4.55 -3.42 -.37 .59 -1.69 .82 -2.94 .51 -3.44 -.86 -4.73 1.59 -4.89 9.32 -.15 7.57 -2.57 12.21 -5.22 10.01 -1.64 -1.36 -18.4 -2.14 -18.4 -.86 0 .52 -.9 .94 -2 .94 -2.26 0 -2.56 -1.04 -.81 -2.79 .92 -.92 .69 -1.72 -1 -3.51 -1.2 -1.28 -2.19 -2.85 -2.19 -3.48 -0 -1.84 -3.22 -3.02 -6.75 -2.49 -4.01 .61 -4.18 2.05 -.39 3.37 1.57 .55 3.35 2.08 3.96 3.4 .96 2.11 .72 2.72 -2.01 5.01 -1.7 1.43 -3.22 3.73 -3.37 5.1 -.15 1.37 -.82 3.14 -1.48 3.94 -2.54 3.07 -5.62 .77 -3.78 -2.82 1.05 -2.04 .3 -3.73 -1.65 -3.73 -1.04 0 -10.92 -4.26 -15.7 -6.76 -.36 -.19 -1.49 .54 -2.5 1.62 -3.17 3.4 -4.65 3.05 -4.85 -1.15 -.1 -2.08 .2 -4.02 .67 -4.31 1.86 -1.15 .81 -3.54 -1.41 -3.22 -1.52 .22 -2.15 .9 -1.95 2.1 .17 .98 -.62 2.95 -1.75 4.38 -1.13 1.43 -2.05 3.23 -2.05 4 0 2.16 -5.85 13.22 -7.93 15.01 -1.64 1.41 -1.87 3.29 -1.99 16.25 -.38 43.31 14.96 94.46 42.01 140.19 25.67 43.39 69.3 85.5 115.4 111.38 31.72 17.81 73.48 32.01 104.5 35.53 14.56 1.65 1045.72 .86 1052.5 -.81 2.75 -.68 7.47 -1.69 10.5 -2.25 39.55 -7.35 76.98 -24.12 120.43 -53.95 7.47 -5.13 27.28 -23 40.13 -36.21 22.49 -23.11 34.29 -39.15 49.14 -66.79 9.41 -17.52 18.8 -39.28 21.35 -49.51 .41 -1.65 1.85 -6.83 3.2 -11.5 3.17 -11 6.34 -25.88 8.24 -38.74 1.33 -9.02 1.51 -60.6 1.51 -432.25 0 -336.96 -.25 -422 -1.25 -421.97 -.69 .02 -2.6 .77 -4.24 1.66z m-27.01 11.14 c0 1.81 -1.96 1.48 -2.35 -.4 -.22 -1.04 .16 -1.5 1 -1.22 .74 .25 1.35 .97 1.35 1.62z m16.3 .37 c.66 .66 1.2 2.9 1.2 4.98 0 3.26 -.37 3.87 -2.65 4.45 -1.51 .38 -3.34 .24 -4.25 -.33 -1.98 -1.24 -2.65 -6.93 -1.04 -8.86 1.45 -1.75 5.11 -1.87 6.75 -.23z m-78.98 51.54 c-.42 3.66 -3.82 4.48 -3.82 .92 0 -2.25 1.03 -3.36 3.32 -3.58 .45 -.04 .67 1.15 .5 2.66z m-57.82 61.33 c0 .48 -.66 .61 -1.5 .29 -.83 -.32 -1.5 -.96 -1.5 -1.44 0 -.48 .66 -.61 1.5 -.29 .83 .32 1.5 .96 1.5 1.44z m-50 34.5 c0 .93 -.68 1.44 -1.67 1.25 -2.51 -.49 -2.85 -2.82 -.42 -2.82 1.23 0 2.08 .65 2.08 1.57z m-1022 416.99 c0 1.7 -2.58 1.93 -3.57 .33 -.75 -1.22 1.49 -3.05 2.77 -2.26 .44 .27 .8 1.14 .8 1.93z m67.29 56.06 c.76 .76 -1.73 3.38 -3.21 3.38 -1.18 0 -1.46 -2.28 -.4 -3.33 .84 -.84 2.8 -.86 3.62 -.05z m-3.13 9.63 c-1.15 1.15 -3.45 .04 -2.64 -1.27 .3 -.49 1.24 -.62 2.08 -.3 1 .38 1.2 .93 .56 1.57z m-72.15 36.75 c0 .55 .34 .95 .75 .88 2.14 -.34 3.13 .28 2.61 1.62 -.69 1.8 -3.5 1.96 -5.16 .3 -1.67 -1.67 -1.5 -3.8 .3 -3.8 .82 0 1.5 .45 1.5 1z m18.08 12.74 c-.56 3.49 -.87 3.78 -4.34 4.07 -4.61 .38 -4.72 -.71 -.58 -5.86 3.81 -4.75 5.86 -4 4.92 1.79z m-48.65 7.83 c3.39 3.39 .74 8.43 -4.43 8.43 -1.89 0 -3.55 -.89 -4.93 -2.63 -2.77 -3.53 -2.63 -4.22 1.18 -5.87 4.26 -1.85 6.27 -1.83 8.18 .08z m-138.55 66.33 c1.72 1.09 .59 3.1 -1.74 3.1 -1.81 0 -4.14 -1.8 -4.14 -3.2 0 -1.07 4.14 -.99 5.88 .1z M258.53 653.55 c-1.64 1.24 -2.01 2.86 -2.19 9.72 -.38 14.04 1.75 17.85 18 32.28 l3.44 3.05 10.34 -6.31 c13.34 -8.14 13.53 -8.35 10.66 -10.97 -1.25 -1.14 -9.47 -6.91 -18.27 -12.84 -8.8 -5.92 -16.15 -11.15 -16.33 -11.61 -.18 -.46 -1.08 -1.74 -2 -2.83 -1.59 -1.89 -1.76 -1.91 -3.64 -.49z M256.29 732.51 c-3.34 2.34 -6.29 9.83 -6.29 16 0 5.04 .35 5.91 3.89 9.76 2.14 2.33 4.61 5.97 5.5 8.11 1.56 3.75 1.55 3.98 -.39 7.12 -2.49 4.02 -2.53 6.63 -.17 9.54 l1.83 2.26 2.23 -3.14 c1.29 -1.81 7.32 -6.18 14.23 -10.31 12.79 -7.65 16.68 -11.19 14.8 -13.46 -.61 -.73 -3.87 -2.93 -7.26 -4.9 -17.44 -10.13 -19.82 -11.98 -22.74 -17.67 -2.38 -4.65 -3.11 -5.07 -5.63 -3.31z" fill="#5b6375" fill-rule="evenodd" stroke="#5b6375" stroke-linejoin="round" stroke-width="0.80"/>
<path d="M.13 138.25 c.08 83.93 .47 135.5 1 131.25 3.95 -31.69 6.32 -42.96 13.84 -65.61 10.98 -33.07 30.26 -68.2 51.36 -93.59 29.04 -34.95 61.17 -60.59 100.67 -80.35 28.5 -14.26 61.49 -24.03 93 -27.56 7.43 -.83 13.95 -1.68 14.5 -1.88 .55 -.2 -60.99 -.4 -136.75 -.45 l-137.75 -.08 .13 138.25z M1300 1.11 c22.52 2.99 30.81 4.38 41.5 6.93 60.97 14.57 114.33 47.55 156.87 96.96 39.49 45.86 63.27 101.64 69.09 162 1.13 11.73 1.32 -4.85 1.42 -126.75 l.12 -140.25 -137.75 .12 c-82.23 .07 -135.13 .47 -131.25 .99z M767.27 322.41 c-4.53 1.24 -10.69 3.57 -13.69 5.18 -4.75 2.54 -51.48 30.63 -95.81 57.6 -7.85 4.77 -24.84 15.05 -37.77 22.83 -22.53 13.57 -67.51 40.73 -103.5 62.5 -9.35 5.65 -35.53 21.47 -58.18 35.13 -22.65 13.67 -52.58 31.78 -66.5 40.24 -25.77 15.66 -96.61 58.36 -112.54 67.83 -16.95 10.08 -22.21 16.53 -22.25 27.28 -.02 4 .75 7.14 2.82 11.5 2.77 5.86 3.24 6.27 19.75 17.34 9.3 6.24 17.81 12.36 18.91 13.6 1.1 1.24 8.75 6.68 17 12.09 17.75 11.63 40.89 26.82 74.5 48.91 13.48 8.86 38.56 25.32 55.75 36.58 17.19 11.26 39.12 25.65 48.74 31.98 9.62 6.33 38.75 25.44 64.75 42.48 25.99 17.04 59.41 38.94 74.26 48.68 14.85 9.73 35.55 23.31 46 30.18 79.14 51.97 81.88 53.64 91 55.67 7.38 1.64 23.03 1.33 29.5 -.59 5.03 -1.49 7.51 -2.23 18.81 -9.19 11.3 -6.96 31.41 -20.16 71.69 -46.59 52.44 -34.41 226.29 -148.39 260.5 -170.78 32.16 -21.06 43.62 -28.58 67.5 -44.32 14.3 -9.42 31.74 -20.88 38.75 -25.45 7.01 -4.57 12.75 -8.7 12.75 -9.18 0 -.48 7.33 -5.77 16.28 -11.75 18.06 -12.07 21.7 -15.55 24.22 -23.16 3.19 -9.61 .34 -19.33 -7.8 -26.53 -4.46 -3.94 -7.4 -5.86 -19.7 -12.82 -8.11 -4.59 -41.6 -24.94 -49 -29.78 -5.58 -3.65 -16.22 -10 -41.5 -24.79 -7.7 -4.5 -20.53 -12.18 -28.5 -17.06 -15.31 -9.37 -27.21 -16.59 -39.6 -24.01 -11.21 -6.72 -67.69 -40.84 -89.66 -54.17 -10.58 -6.42 -23.96 -14.47 -29.74 -17.9 -5.77 -3.43 -12.08 -7.22 -14 -8.44 -1.92 -1.21 -7.1 -4.36 -11.5 -6.98 -15.87 -9.47 -56.77 -34.14 -66.78 -40.28 -5.62 -3.45 -15.85 -9.66 -22.72 -13.8 -6.88 -4.14 -20.15 -12.2 -29.5 -17.91 -42.72 -26.1 -48.04 -29.2 -52.5 -30.59 -14.48 -4.53 -27.92 -5.04 -40.73 -1.52z m37.8 136.92 c3.54 2.38 49.86 34.42 102.94 71.2 53.08 36.78 101.79 70.5 108.24 74.92 6.62 4.54 11.64 8.65 11.5 9.43 -.22 1.21 -33.25 22.99 -52.06 34.32 l-6.81 4.11 -5.69 -4.01 c-3.13 -2.2 -16.04 -11.19 -28.69 -19.97 -12.65 -8.78 -38.75 -26.92 -58 -40.29 -19.25 -13.38 -43.33 -30.11 -53.5 -37.18 -74.82 -51.97 -82.51 -57.49 -82.77 -59.37 -.22 -1.61 5.07 -5.34 27.97 -19.73 15.54 -9.76 28.74 -17.75 29.34 -17.75 .6 0 3.99 1.95 7.53 4.33z m-78.2 73.53 c14.1 9.82 39.13 27.21 55.63 38.66 73.58 51.03 75.98 52.93 86.37 68.45 7.68 11.48 10.2 18.83 10.84 31.54 1.36 27.31 -13.76 51.17 -45.68 72.08 -22.88 14.99 -49.28 25.47 -74.52 29.56 -11.76 1.91 -42.77 1.65 -54.22 -.45 -17.2 -3.16 -37.18 -10.66 -51.58 -19.37 -14.13 -8.55 -157.22 -109.53 -157.49 -111.14 -.22 -1.29 6.84 -6.19 28.05 -19.46 15.59 -9.75 29.25 -17.73 30.36 -17.73 1.75 0 13.06 7.5 45.38 30.1 4.12 2.88 20.77 14.46 37 25.72 16.23 11.26 36.48 25.45 45 31.54 21.7 15.5 30.75 21 38.65 23.48 14.46 4.55 29.29 4.4 43.35 -.43 20.63 -7.09 37.98 -23.27 37.98 -35.41 0 -5.63 -4.4 -13.61 -11.22 -20.36 -3.57 -3.52 -19.54 -15.42 -37.13 -27.66 -97.38 -67.74 -111.12 -77.56 -111.12 -79.41 0 -1.39 7.53 -6.61 28.45 -19.73 15.65 -9.81 28.86 -17.84 29.37 -17.84 .51 0 12.45 8.03 26.55 17.85z m356.43 135.4 c-6.2 6.81 -5.72 14.22 1.37 20.94 9.71 9.23 27.87 7.96 35.43 -2.48 3.26 -4.5 3.63 -8.06 1.4 -13.4 -.97 -2.33 -1.28 -3.65 -.96 -3.94 .33 -.29 1.29 .46 2.86 2.26 3.55 4.09 4.27 9.47 1.87 14.13 -1.58 3.07 -5.84 6.28 -23.84 18 -12.06 7.85 -24.4 15.21 -27.42 16.37 -13.19 5.04 -31.55 .44 -36.5 -9.13 -2.08 -4.01 -1.88 -10.85 .41 -14.62 1.19 -1.95 6.53 -6.04 14.25 -10.91 6.79 -4.28 16.81 -10.64 22.26 -14.13 9.92 -6.34 12.72 -7.32 8.88 -3.09z m-190.48 143.96 c2.3 1.77 4.16 3.68 4.14 4.25 -.02 .57 -6.21 4.91 -13.75 9.64 -7.54 4.73 -26.96 16.99 -43.15 27.25 -31 19.64 -33.75 20.86 -37.49 16.73 -3.74 -4.13 -2.1 -5.85 17.43 -18.28 38.4 -24.45 46.27 -29.48 56.25 -36.03 5.64 -3.7 10.74 -6.74 11.32 -6.75 .59 -.01 2.95 1.42 5.25 3.19z M776.18 476.38 c-10.63 6.77 -20.2 13.19 -21.27 14.26 -1.51 1.51 -3.54 1.3 5.84 8.36 9.37 7.06 30.15 21.39 74.25 51.98 14.02 9.73 37.65 26.16 52.5 36.52 14.85 10.36 33.08 23.07 40.5 28.24 7.42 5.17 19.58 13.64 27 18.82 7.42 5.18 13.81 9.43 14.19 9.43 .38 .01 7.36 -4.19 15.5 -9.31 27.98 -17.62 29.46 -18.66 29.12 -20.41 -.18 -.92 -23.27 -17.54 -51.32 -36.95 -28.05 -19.4 -61.23 -42.38 -73.75 -51.05 -12.51 -8.67 -29.84 -20.67 -38.5 -26.66 -8.66 -5.99 -23.69 -16.45 -33.41 -23.25 -9.71 -6.8 -18.49 -12.35 -19.5 -12.32 -1.01 .02 -10.54 5.58 -21.16 12.35z M679.5 536.06 c-13.07 8.25 -19.34 12.16 -22.06 14.32 -2.72 2.16 -1.9 2.56 -.8 3.78 2.25 2.48 17.95 13.64 79.86 56.75 26.95 18.77 52.03 36.59 55.73 39.6 11.99 9.75 16.78 18.46 16.74 30.42 -.06 17.04 -15.35 31.84 -41.98 40.65 -7.89 2.61 -9.68 2.81 -25 2.87 -25.09 .09 -29.84 -1.92 -68.57 -28.94 -51.58 -35.99 -70.42 -49.14 -93.56 -65.3 -13.54 -9.46 -24.97 -17.2 -25.39 -17.2 -1.28 0 -42.12 25.94 -43.85 27.86 -1.1 1.21 -1.88 1.63 2.36 5.07 4.24 3.44 13.51 9.92 32.51 23.25 53.66 37.64 94.49 66.15 104.8 73.18 51.85 35.34 114 35.17 172.44 -.49 21.52 -13.13 40.41 -32.98 46.26 -48.61 6.82 -18.22 3.99 -35.56 -8.49 -52.06 -7.87 -10.4 -20.37 -20.43 -58.1 -46.61 -19.75 -13.7 -43.17 -30.01 -52.05 -36.23 -29.14 -20.44 -49.74 -34.35 -50.82 -34.32 -.58 .02 -9.6 5.43 -20.05 12.03z M268.34 702.85 c-2.66 2.12 -5.61 4.72 -6.55 5.79 -5.25 5.93 -6.33 17.55 -2.4 25.86 3.54 7.47 7.05 10.41 24.61 20.58 3.02 1.75 6.62 4.41 8 5.92 1.38 1.5 15.32 10.6 31 20.23 15.68 9.62 39.98 24.6 54 33.28 14.02 8.68 29.32 18.13 34 21 4.68 2.87 17.73 10.96 29 17.99 11.27 7.02 27.93 17.38 37 23.01 9.07 5.63 25.5 15.84 36.5 22.69 21.52 13.39 107.04 66.55 130 80.82 33.68 20.93 69.79 43.4 92.5 57.55 28.9 18.02 33.44 19.88 48.5 19.92 10.26 .03 17.01 -1.3 23.8 -4.68 2.09 -1.04 37.42 -22.85 78.5 -48.46 41.08 -25.61 85.95 -53.56 99.7 -62.11 13.75 -8.55 40.3 -25.08 59 -36.73 42.77 -26.66 81.93 -50.98 153 -95 10.45 -6.47 23.5 -14.56 29 -17.98 5.5 -3.42 18.55 -11.5 29 -17.96 10.45 -6.46 19.9 -12.72 21 -13.9 2.11 -2.27 9.7 -7.4 17.87 -12.09 12.17 -6.98 17.31 -15.5 16.37 -27.16 -.67 -8.3 -4.39 -14.63 -11.28 -19.18 l-4.96 -3.27 -1.81 2.2 c-1.34 1.64 -1.65 3.14 -1.19 5.84 .56 3.29 .1 4.3 -4.69 10.49 -4.73 6.1 -6.54 7.53 -16.59 13.02 -6.21 3.39 -12.51 7.32 -14 8.73 -1.49 1.41 -4.5 3.3 -6.68 4.19 -4.51 1.86 -23.82 14.7 -39.91 26.55 -5.98 4.4 -11.56 8.01 -12.38 8.01 -1.9 0 -6.6 2.85 -16.74 10.16 -7.74 5.58 -10.8 7.91 -22.5 17.15 -3.03 2.39 -7.62 5.13 -10.22 6.09 -2.6 .96 -6.87 3.63 -9.5 5.94 -2.63 2.31 -6.5 4.99 -8.61 5.95 -2.11 .97 -6.16 3.89 -9 6.48 -2.84 2.6 -7.34 5.85 -10 7.23 -2.66 1.38 -6.48 3.9 -8.5 5.61 -2.02 1.71 -4.65 3.42 -5.85 3.8 -1.2 .38 -3.53 2.22 -5.17 4.08 -1.64 1.87 -5.38 4.6 -8.31 6.07 -2.93 1.47 -6.16 3.4 -7.17 4.3 -1.01 .89 -3.77 2.75 -6.14 4.14 -5.93 3.47 -14.52 10.02 -14.52 11.07 0 1.81 -4.76 5.32 -11.83 8.72 -4.19 2.01 -8.26 4.79 -9.5 6.48 -1.19 1.62 -3.97 3.86 -6.17 4.98 -6.73 3.41 -13.47 8.82 -14.1 11.32 -.62 2.49 -7.92 7.45 -10.96 7.45 -.94 0 -3.14 1.52 -4.89 3.37 -1.75 1.86 -4.28 3.69 -5.62 4.09 -2.29 .67 -10.34 5.55 -15.94 9.67 -8.6 6.33 -33.63 22.26 -44.5 28.34 -2.75 1.54 -5.9 3.6 -7 4.58 -1.78 1.59 -28.51 18.61 -35.83 22.82 -1.55 .89 -6.05 3.7 -10 6.24 -3.95 2.54 -11.67 7.45 -17.17 10.91 -5.5 3.46 -11.35 7.14 -13 8.18 -1.65 1.04 -7.95 4.99 -14 8.78 -16.94 10.61 -25.29 15.87 -31.62 18.47 -6.33 2.6 -10.64 2.55 -19.5 2.55 -9.08 0 -12.5 .53 -20.86 -3.45 -8.37 -3.98 -21.67 -12.46 -50.52 -30.49 -40.5 -25.31 -42.75 -26.77 -46.78 -30.24 -1.81 -1.55 -3.79 -2.83 -4.41 -2.83 -1.51 0 -28.3 -16.68 -29.91 -18.63 -.7 -.84 -3.78 -2.87 -6.83 -4.5 -7.94 -4.24 -12.26 -6.97 -15.97 -10.12 -1.78 -1.51 -3.73 -2.75 -4.32 -2.75 -.59 0 -2.67 -1.86 -4.61 -4.13 -1.94 -2.27 -5 -4.74 -6.78 -5.49 -4.54 -1.9 -15.21 -10.06 -19.78 -15.13 -2.7 -3 -4.62 -4.25 -6.52 -4.25 -1.84 0 -3.41 -.96 -4.94 -3.03 -3.75 -5.08 -9.95 -8.97 -14.28 -8.97 -3.08 0 -3.85 -.37 -3.85 -1.85 0 -1.77 -2.87 -5.15 -4.37 -5.15 -.39 0 -3.73 -2.23 -7.42 -4.95 -3.69 -2.72 -8.28 -6.12 -10.21 -7.54 -1.92 -1.42 -5.75 -4.14 -8.5 -6.05 -2.75 -1.91 -7.25 -5.03 -10 -6.95 -2.75 -1.92 -7.02 -4.58 -9.5 -5.91 -2.48 -1.33 -6.07 -4.09 -8 -6.14 -1.93 -2.04 -5.75 -4.8 -8.5 -6.13 -4.69 -2.27 -15.94 -9.99 -27.11 -18.61 -2.69 -2.08 -13.44 -9.38 -23.89 -16.24 -10.45 -6.85 -20.8 -13.77 -23 -15.38 -2.2 -1.6 -5.8 -3.95 -8 -5.2 -2.2 -1.26 -5.48 -3.55 -7.28 -5.1 -1.81 -1.55 -3.76 -2.81 -4.35 -2.81 -1.28 0 -12.2 -7.06 -34.97 -22.62 -3.32 -2.27 -7.46 -5.5 -9.21 -7.19 -1.75 -1.69 -5.39 -4.01 -8.09 -5.16 -2.7 -1.15 -6.98 -3.58 -9.5 -5.4 -2.52 -1.82 -7.51 -5.02 -11.09 -7.11 -3.57 -2.1 -8.52 -5.48 -11 -7.51 -2.48 -2.03 -6.07 -4.51 -8 -5.49 -3.96 -2.03 -8.76 -5.66 -13.08 -9.87 -2.89 -2.82 -3.86 -6.95 -1.92 -8.14 1.59 -.99 1.16 -4.04 -.83 -5.85 -1.21 -1.09 -1.78 -1.65 -2.74 -1.38 -.96 .27 -2.31 1.37 -5.09 3.58z M257.36 790.5 c-1.15 2.99 .35 14.01 2.46 18.15 2.31 4.52 9.01 10.47 16.68 14.81 2.75 1.55 5.9 3.82 7 5.04 1.1 1.22 22.25 14.05 47 28.52 64.33 37.6 162.28 95.23 306.5 180.35 84.82 50.06 127.77 74.86 132.5 76.51 5.59 1.95 9.11 2.46 17.5 2.53 14.49 .13 20.51 -1.96 40.5 -13.99 8.8 -5.3 61.67 -36.98 117.5 -70.4 182.81 -109.44 268.31 -160.6 308.43 -184.77 40.11 -24.16 34.83 -21.32 36.07 -22.75 1.1 -1.26 4.25 -3.54 7 -5.07 6.89 -3.82 10.26 -7.1 13.2 -12.87 2.4 -4.7 2.43 -5 .72 -6.25 -2.77 -2.03 -4.12 -1.63 -8.69 2.56 -2.33 2.13 -13.23 9.26 -24.23 15.84 -87.08 52.07 -273.68 163.94 -276.5 165.76 -10.14 6.58 -185.46 111.4 -190.89 114.13 -8.12 4.09 -17.29 5.84 -26.49 5.06 -9.91 -.84 -16.77 -3.34 -28.25 -10.32 -5.43 -3.3 -12.13 -7.27 -14.88 -8.82 -2.75 -1.55 -14.9 -8.66 -27 -15.81 -12.1 -7.15 -28.3 -16.71 -36 -21.25 -7.7 -4.54 -25.02 -14.78 -38.5 -22.74 -13.48 -7.96 -32.38 -19.1 -42 -24.76 -9.62 -5.66 -30.77 -18.15 -47 -27.75 -16.23 -9.6 -38.27 -22.65 -49 -28.99 -10.73 -6.34 -24.9 -14.75 -31.5 -18.7 -6.6 -3.94 -18.07 -10.7 -25.5 -15.03 -7.43 -4.33 -20.48 -11.99 -29 -17.04 -8.52 -5.05 -20.9 -12.34 -27.5 -16.21 -66.2 -38.81 -83.39 -48.92 -98.5 -57.92 -9.62 -5.73 -18.2 -10.97 -19.05 -11.63 -2.87 -2.24 -4.95 -6.13 -4.95 -9.26 0 -4.36 -6.4 -10.18 -7.64 -6.95z" fill="#e8e9ed" fill-rule="evenodd" stroke="#e8e9ed" stroke-linejoin="round" stroke-width="0.80"/>
<path d="M767.46 471.26 c-24.6 15.51 -29 18.64 -29.26 20.83 -.16 1.37 -1.59 1.07 8.46 8.39 10.05 7.32 31.58 22.25 77.34 54.07 23.12 16.08 81.72 56.8 110.5 76.78 12.65 8.78 25.55 17.77 28.67 19.97 l5.67 4 3.83 -2.24 c2.1 -1.23 15.88 -9.94 30.62 -19.34 21.52 -13.73 26.74 -17.48 26.5 -19.04 -.18 -1.21 -5.07 -5.26 -12.79 -10.61 -113.04 -78.35 -167.51 -116.11 -193.92 -134.28 -26.41 -18.18 -24.76 -16.77 -25.56 -16.77 -.61 0 -14.14 8.21 -30.06 18.26z m49.92 7.49 c10.02 7.01 25.07 17.47 33.45 23.25 8.38 5.78 25.93 17.92 39 27 13.07 9.08 45.91 31.8 72.97 50.5 27.06 18.7 49.2 34.45 49.2 35.01 0 .55 -1.91 2.18 -4.24 3.62 -2.34 1.44 -11.8 7.39 -21.04 13.24 -9.23 5.85 -17.11 10.63 -17.5 10.62 -.39 -.01 -6.79 -4.25 -14.21 -9.43 -7.42 -5.18 -19.58 -13.65 -27 -18.82 -7.42 -5.17 -25.65 -17.88 -40.5 -28.24 -14.85 -10.36 -38.48 -26.79 -52.5 -36.52 -68.75 -47.67 -78.5 -54.67 -78.5 -56.34 0 -1.94 37.75 -26.54 40.83 -26.61 1.01 -.02 10.03 5.7 20.05 12.71z M672.94 529.57 c-17.03 10.67 -25.26 15.81 -29.24 18.59 -3.98 2.78 -3.7 3.21 -3.7 4.45 -.01 2.12 7.47 7.47 114.99 82.34 16.23 11.3 31.88 22.89 34.78 25.76 5.88 5.82 10.2 13.98 10.2 19.29 0 19.52 -36.43 40.08 -65.23 36.82 -15.97 -1.81 -23.59 -5.63 -52.75 -26.46 -8.52 -6.09 -28.77 -20.28 -45 -31.54 -16.23 -11.26 -32.88 -22.83 -37 -25.72 -32.46 -22.69 -43.64 -30.1 -45.43 -30.09 -2.33 .01 -58.44 34.84 -59.93 37.2 -.53 .84 -.7 2.19 -.38 3.02 .58 1.52 148.1 105.24 159.44 112.1 14.4 8.71 34.38 16.21 51.58 19.37 11.45 2.1 42.46 2.36 54.22 .45 51.57 -8.37 103.23 -41.99 117.79 -76.65 5.48 -13.05 6.15 -30.52 1.66 -43.39 -3.25 -9.32 -12.57 -22.58 -22.43 -31.92 -8.43 -7.98 -15.28 -12.95 -74.01 -53.68 -16.5 -11.44 -41.53 -28.84 -55.63 -38.66 -14.1 -9.82 -26.05 -17.85 -26.56 -17.85 -.51 0 -12.82 7.46 -27.37 16.57z m44.48 7.95 c9.25 6.34 24.07 16.61 32.95 22.83 8.87 6.22 32.21 22.47 51.86 36.1 19.65 13.63 39.32 27.92 43.72 31.74 31.06 27.01 33 58.26 5.51 88.59 -16.86 18.61 -49.21 37.09 -77.96 44.53 -44.49 11.52 -85.84 4.48 -123.2 -20.96 -8 -5.45 -87.78 -61.24 -128.55 -89.89 -5.36 -3.77 -9.75 -7.39 -9.75 -8.05 0 -1.1 40.78 -27.41 42.49 -27.41 .42 0 11.84 7.74 25.39 17.2 23.14 16.16 41.98 29.31 93.56 65.3 38.73 27.02 43.48 29.03 68.57 28.94 15.32 -.05 17.11 -.26 25 -2.87 20.36 -6.73 35 -17.71 41.6 -31.18 3.4 -6.95 3.21 -18.17 -.44 -25.62 -5.56 -11.36 -9.89 -14.88 -68.65 -55.77 -66.11 -46 -81.5 -57.02 -81.47 -58.33 .03 -1.19 39.59 -26.57 41.53 -26.64 .58 -.02 8.62 5.15 17.87 11.48z" fill="#f5650c" fill-rule="evenodd" stroke="#f5650c" stroke-linejoin="round" stroke-width="0.80"/>
<path d="M1081.63 665.01 c-2.13 1.06 -5.28 3 -7 4.3 -1.72 1.31 -7.86 5.2 -13.63 8.66 -22.48 13.46 -26.99 17.78 -27 25.82 -.01 15.33 22.52 25.35 40.53 18.03 8.66 -3.52 47.96 -29.3 51.25 -33.62 3.44 -4.51 3.7 -11.95 .54 -15.46 -1.12 -1.24 -2.26 -2.93 -2.55 -3.76 -.55 -1.58 -9.59 -4.5 -10.66 -3.44 -.34 .34 .68 1.55 2.26 2.71 3.18 2.31 5.62 7.25 5.62 11.35 0 7.52 -8.86 13.78 -19.53 13.78 -17.86 0 -26.96 -15.84 -15.02 -26.15 2.56 -2.21 2.68 -4.26 .25 -4.18 -.66 .02 -2.93 .91 -5.06 1.97z M291.5 688.13 c-4.4 2.67 -8.13 5.23 -8.28 5.71 -.5 1.5 8.3 10.51 13.9 14.24 2.96 1.97 6.32 4.22 7.48 5 1.15 .78 7.45 4.98 14 9.32 6.55 4.35 14.38 9.57 17.4 11.61 3.02 2.04 7.78 4.86 10.56 6.27 2.78 1.41 7.03 4.21 9.43 6.21 2.4 2.01 6.2 4.57 8.44 5.69 2.24 1.12 5.08 2.97 6.32 4.1 2.32 2.12 12.02 8.49 42.25 27.72 9.62 6.12 22.23 14.46 28 18.53 5.77 4.07 12.98 8.86 16 10.65 3.02 1.79 16.07 10.27 29 18.86 12.93 8.59 24.95 16.48 26.71 17.54 1.77 1.06 6.27 4 10 6.53 3.73 2.53 14.21 9.46 23.29 15.41 9.08 5.94 25.5 16.74 36.5 23.99 11 7.25 21.41 14.05 23.13 15.09 1.72 1.05 8.47 5.54 15 9.98 6.53 4.44 17.72 11.97 24.87 16.73 7.15 4.76 15.7 10.63 19 13.04 3.3 2.41 8.25 5.65 11 7.21 2.75 1.56 6.8 4.27 9 6.02 2.2 1.75 5.8 4.14 8 5.3 2.2 1.16 8.05 5.04 13 8.61 4.95 3.57 12.31 8.64 16.35 11.26 4.04 2.62 9.34 6.23 11.77 8.02 4.22 3.11 19.37 11.13 27.89 14.75 15.91 6.78 33.21 5.97 50.5 -2.35 10.42 -5.02 30.68 -16.54 33.46 -19.03 1.12 -1.01 4.74 -3.53 8.04 -5.62 3.3 -2.09 7.58 -4.88 9.5 -6.21 11.34 -7.83 45.89 -30.8 54.9 -36.51 5.83 -3.69 11.09 -7.06 11.69 -7.5 .6 -.44 9.15 -6.14 19 -12.68 9.85 -6.54 24.34 -16.21 32.19 -21.5 7.86 -5.29 15.73 -10.49 17.5 -11.57 1.77 -1.08 14.56 -9.4 28.42 -18.5 13.87 -9.1 29.39 -19.27 34.5 -22.61 5.11 -3.34 23.68 -15.7 41.27 -27.47 17.59 -11.77 34.05 -22.54 36.59 -23.93 2.54 -1.39 9.07 -5.56 14.52 -9.27 13.94 -9.48 23.84 -16.06 39.41 -26.18 7.42 -4.83 16.88 -11.19 21 -14.14 7.46 -5.33 18.14 -12.23 31.5 -20.35 26 -15.79 32.85 -20.87 37.49 -27.74 l3.1 -4.6 -2.29 -1.63 c-1.26 -.9 -5.07 -3.27 -8.47 -5.27 l-6.19 -3.64 -3.54 2.4 c-2.36 1.6 -3.34 2.92 -2.94 3.95 1.3 3.38 -16.83 17.14 -29.4 22.32 -10.36 4.27 -22.86 11.82 -29.68 17.92 -9.98 8.93 -20.67 15.91 -36.15 23.61 -4.99 2.48 -11.07 6.25 -13.5 8.37 -2.43 2.12 -7.8 6.02 -11.93 8.66 -4.12 2.64 -10.2 6.86 -13.5 9.36 -3.3 2.5 -11.62 7.9 -18.5 11.99 -11.17 6.64 -15.49 9.52 -31.13 20.69 -2.31 1.65 -7.63 5.25 -11.83 8 -4.2 2.75 -9.41 6.4 -11.59 8.12 -2.18 1.72 -6.66 4.56 -9.96 6.31 -10.97 5.84 -15.04 8.51 -23.55 15.44 -4.65 3.78 -10.47 7.79 -12.95 8.9 -2.48 1.11 -7.36 3.98 -10.87 6.37 -3.5 2.39 -6.97 4.35 -7.72 4.35 -.74 0 -2.86 1.33 -4.71 2.95 -5.55 4.87 -24.81 17.53 -30.87 20.29 -3.12 1.42 -8.24 4.53 -11.39 6.92 -3.15 2.39 -6.9 5.22 -8.33 6.29 -1.44 1.07 -4.41 3.56 -6.61 5.53 -2.2 1.98 -8.27 5.97 -13.5 8.88 -15.4 8.57 -18.51 10.48 -22.26 13.64 -9.63 8.12 -21.1 15.96 -28.74 19.63 -6.64 3.19 -14.06 8.09 -23.82 15.74 -8.43 6.61 -15.01 10.35 -33.68 19.13 -16.89 7.95 -22.52 8.53 -35.24 3.62 -26.12 -10.08 -29.83 -12.1 -42.78 -23.29 -7.46 -6.45 -13.27 -10.55 -18.11 -12.79 -7.93 -3.66 -15.12 -8.35 -28.44 -18.53 -4.93 -3.77 -13.8 -9.62 -19.7 -13.01 -11.83 -6.78 -19.7 -12.15 -24.55 -16.75 -1.75 -1.66 -6.78 -4.95 -11.18 -7.31 -10.19 -5.48 -25.04 -15.2 -36.3 -23.77 -3.13 -2.38 -8.4 -5.64 -11.7 -7.25 -3.3 -1.6 -8.7 -4.95 -12 -7.43 -3.3 -2.49 -7.8 -5.46 -10 -6.61 -2.2 -1.15 -5.12 -3.11 -6.5 -4.34 -2.98 -2.68 -16.82 -11.86 -30.98 -20.53 -6.19 -3.79 -21.35 -14.04 -38.64 -26.11 -6 -4.19 -13.69 -9.02 -17.1 -10.74 -3.41 -1.72 -7.68 -4.41 -9.49 -5.98 -1.81 -1.57 -6.53 -4.73 -10.49 -7.02 -3.96 -2.29 -11.83 -7.65 -17.5 -11.91 -11.86 -8.9 -14.77 -10.8 -24.07 -15.71 -15.77 -8.32 -33.02 -20.71 -34.26 -24.62 -.3 -.94 -4.91 -4.54 -10.26 -8.02 -5.34 -3.47 -19.84 -13.01 -32.22 -21.19 -12.38 -8.18 -23.18 -15.22 -24 -15.64 -.99 -.51 -4.23 .89 -9.5 4.08z M1280.25 763.25 c-.55 .69 -1.74 2.71 -2.65 4.5 -1.16 2.28 -3.5 4.18 -7.87 6.38 -3.42 1.72 -7.7 4.42 -9.51 6 -1.81 1.58 -3.69 2.87 -4.19 2.87 -.5 0 -3.52 2.29 -6.72 5.1 -3.19 2.8 -8.51 6.46 -11.81 8.13 -10.98 5.55 -32.97 18 -35 19.81 -3.78 3.38 -17.96 13.2 -23.48 16.26 -3.04 1.68 -7.32 4.27 -9.52 5.74 -2.2 1.47 -8.5 5.25 -14 8.38 -5.5 3.14 -12.78 7.59 -16.17 9.89 -11.98 8.12 -26.88 17.53 -31.06 19.61 -2.33 1.16 -7.95 4.52 -12.5 7.47 -4.55 2.95 -10.72 6.6 -13.72 8.11 -3 1.51 -8.35 4.94 -11.9 7.62 -3.55 2.68 -6.99 4.88 -7.64 4.88 -.66 0 -4.51 2.36 -8.56 5.25 -4.05 2.89 -11.98 7.95 -17.61 11.25 -19.53 11.44 -34.17 20.59 -40.87 25.53 -3.7 2.73 -7.06 4.97 -7.46 4.97 -.4 0 -4.95 2.84 -10.11 6.31 -7.95 5.35 -22.46 14.46 -35.19 22.11 -1.76 1.06 -6.37 3.98 -10.24 6.5 -3.88 2.52 -10.31 6.61 -14.3 9.08 -3.99 2.48 -11.62 7.36 -16.95 10.85 -5.33 3.49 -11.27 7.15 -13.2 8.14 -1.92 .99 -4.34 2.72 -5.36 3.86 -1.02 1.13 -5.07 3.98 -9 6.32 -3.93 2.34 -8.71 5.48 -10.64 6.98 -1.92 1.49 -8.9 5.96 -15.5 9.92 -6.6 3.96 -12.9 7.97 -14 8.9 -5.84 4.98 -19.93 11.66 -34 16.11 -7.47 2.36 -20.99 2.58 -26.15 .42 -1.97 -.82 -4.61 -1.5 -5.86 -1.5 -3.06 0 -14.81 -4.93 -20.98 -8.8 -2.75 -1.73 -7.6 -4.51 -10.78 -6.2 -3.18 -1.68 -7.45 -4.57 -9.5 -6.42 -2.05 -1.85 -7.77 -5.84 -12.72 -8.89 -4.95 -3.04 -12.54 -7.7 -16.86 -10.36 -4.32 -2.66 -11.21 -7.08 -15.3 -9.83 -4.09 -2.75 -11.15 -7.25 -15.7 -10 -9.6 -5.81 -20.73 -12.9 -31.52 -20.07 -4.2 -2.79 -12.8 -8.14 -19.13 -11.89 -12.62 -7.48 -18.92 -11.38 -23.5 -14.5 -3.48 -2.38 -14.73 -9.66 -25.5 -16.52 -4.12 -2.62 -9.3 -6 -11.5 -7.5 -2.2 -1.5 -5.57 -3.54 -7.49 -4.52 -1.92 -.98 -5.75 -3.48 -8.5 -5.55 -2.75 -2.07 -9.51 -6.33 -15.01 -9.48 -5.5 -3.14 -10.94 -6.57 -12.1 -7.62 -1.15 -1.05 -4.38 -3.35 -7.16 -5.12 -4.89 -3.11 -7.56 -4.82 -26.13 -16.74 -4.73 -3.04 -11.98 -7.51 -16.11 -9.93 -4.12 -2.43 -9.3 -5.82 -11.5 -7.54 -2.2 -1.72 -7.15 -4.82 -11 -6.9 -3.85 -2.07 -8.58 -5.02 -10.52 -6.55 -1.94 -1.53 -5.54 -3.81 -8 -5.06 -2.46 -1.26 -5.83 -3.29 -7.48 -4.52 -1.65 -1.23 -5.02 -3.24 -7.5 -4.47 -5.25 -2.59 -14.7 -8.65 -35.47 -22.75 -4.38 -2.97 -12.93 -8.11 -19 -11.41 -15.55 -8.46 -22.57 -12.62 -26.03 -15.43 -13.25 -10.75 -18.16 -13.88 -28.01 -17.88 -2.33 -.95 -4.72 -2.87 -5.71 -4.6 -.94 -1.64 -2.38 -3.23 -3.19 -3.54 -.82 -.31 -5.04 1.56 -9.38 4.17 l-7.9 4.73 2.41 4.32 c3.11 5.56 6.14 8.05 16.12 13.24 4.48 2.33 10.91 6.46 14.31 9.19 3.4 2.72 6.73 4.95 7.41 4.95 .68 0 3.64 1.62 6.59 3.6 2.94 1.98 6.7 4.3 8.34 5.15 1.65 .85 5.25 3.23 8 5.29 2.75 2.06 7.48 4.98 10.51 6.49 3.02 1.51 8.26 4.6 11.64 6.86 3.38 2.26 8.33 5.34 11 6.84 2.67 1.5 8.94 5.36 13.93 8.57 4.99 3.21 11.69 7.34 14.89 9.17 10.82 6.19 66.17 41.27 76.94 48.76 3.35 2.33 7.45 4.99 9.1 5.9 1.65 .91 7.95 4.88 14 8.83 6.05 3.94 14.6 9.32 19 11.94 4.4 2.62 9.8 6.04 12 7.58 3.61 2.54 29.42 19.43 42 27.48 2.75 1.76 9.5 6.15 15 9.74 5.5 3.6 11.41 7.38 13.14 8.41 14.3 8.49 26.49 16.15 30.76 19.35 2.8 2.1 8.02 5.46 11.6 7.48 7.89 4.44 18.22 11.35 23.12 15.49 1.99 1.68 4.07 3.05 4.61 3.05 .55 -0 2.74 1.4 4.88 3.1 2.14 1.71 6.81 4.65 10.39 6.55 7.08 3.75 14.59 8.72 28.5 18.85 19.09 13.89 47.2 28.09 60.5 30.55 7 1.3 25.6 .06 33 -2.2 8.09 -2.46 29.65 -13 34.51 -16.86 1.99 -1.58 7.08 -4.91 11.32 -7.39 9.72 -5.7 38.69 -24.63 42.67 -27.88 1.65 -1.35 5.02 -3.47 7.5 -4.72 2.48 -1.25 6.08 -3.51 8 -5.02 1.92 -1.51 5.6 -4.04 8.17 -5.62 2.57 -1.58 9.77 -6.29 16.01 -10.48 6.24 -4.19 13.17 -8.54 15.4 -9.68 2.23 -1.14 4.66 -2.8 5.41 -3.71 .75 -.9 2.74 -2.35 4.43 -3.23 1.69 -.87 5.32 -3.28 8.07 -5.35 2.75 -2.07 10.51 -6.93 17.24 -10.79 6.73 -3.86 13.71 -8.11 15.5 -9.45 1.79 -1.33 5.51 -3.7 8.26 -5.25 2.75 -1.55 6.48 -4.09 8.28 -5.63 1.8 -1.54 4.95 -3.73 7 -4.87 2.05 -1.13 6.42 -3.82 9.72 -5.98 3.3 -2.16 9.68 -5.98 14.19 -8.49 4.5 -2.52 13.11 -7.82 19.14 -11.78 15.86 -10.43 22.98 -15 26 -16.7 1.47 -.82 7.85 -4.85 14.17 -8.96 6.33 -4.1 14.91 -9.5 19.07 -12 8.47 -5.09 12.48 -7.58 27.81 -17.26 5.84 -3.69 13.77 -8.7 17.62 -11.13 3.85 -2.43 8.8 -5.33 11 -6.44 3.78 -1.92 6.28 -3.49 24.99 -15.72 4.21 -2.75 9.56 -6.12 11.89 -7.5 2.33 -1.38 8.04 -4.96 12.68 -7.97 4.64 -3.01 11.64 -7.09 15.55 -9.07 3.91 -1.98 9.49 -5.37 12.39 -7.53 7.41 -5.52 19.4 -12.88 26.54 -16.29 6.55 -3.12 11.44 -8.01 11.46 -11.47 .01 -1.2 .42 -2.81 .92 -3.6 1.04 -1.65 -.36 -2.88 -9.56 -8.4 -3.47 -2.08 -5.17 -3.11 -6.16 -3.41 -.99 -.3 -1.29 .14 -1.96 .98z M1294.95 832.09 c-.66 1.23 -.86 3.12 -.5 4.57 .8 3.2 -2.46 8.58 -6.75 11.14 -4.72 2.82 -10.61 5.89 -15.7 8.19 -7 3.16 -20.36 10.95 -33.5 19.52 -13.23 8.63 -29.37 18.15 -36.39 21.46 -2.42 1.14 -6.38 3.41 -8.8 5.05 -2.42 1.64 -5.85 3.71 -7.61 4.61 -1.76 .9 -4.61 2.81 -6.34 4.25 -1.73 1.44 -9.05 5.99 -16.27 10.11 -7.22 4.12 -20.65 12.18 -29.86 17.91 -9.2 5.72 -20.02 12.11 -24.03 14.2 -4.01 2.09 -8.96 5.08 -11 6.66 -2.04 1.57 -8.2 5.45 -13.7 8.62 -10.98 6.33 -13.43 7.77 -24.5 14.42 -4.12 2.48 -9.97 5.85 -13 7.5 -3.03 1.65 -9.83 5.85 -15.12 9.35 -5.29 3.49 -9.99 6.35 -10.44 6.35 -.45 0 -6.17 3.26 -12.7 7.25 -6.53 3.99 -18.94 11.53 -27.56 16.77 -8.63 5.24 -18.84 11.58 -22.69 14.11 -3.85 2.52 -12.4 7.75 -19 11.62 -31.38 18.39 -36.37 21.4 -41.5 25.07 -3.02 2.16 -8.2 5.42 -11.5 7.23 -3.3 1.81 -9.97 5.92 -14.82 9.13 -4.85 3.2 -9.37 5.83 -10.05 5.83 -1.19 0 -15.48 8.88 -20.64 12.83 -3.09 2.36 -27.41 14.6 -33.24 16.73 -6.53 2.38 -28.61 3.05 -36.76 1.11 -6.45 -1.54 -27.75 -11.76 -33.5 -16.08 -1.65 -1.24 -5.92 -3.94 -9.5 -6 -9.99 -5.76 -16.72 -9.79 -26 -15.6 -4.67 -2.93 -11.27 -6.93 -14.66 -8.91 -12.12 -7.05 -20.98 -12.47 -30.34 -18.57 -11.06 -7.21 -14.5 -9.32 -22 -13.51 -3.02 -1.69 -7.52 -4.38 -10 -5.98 -5.03 -3.25 -11.05 -6.8 -21.65 -12.75 -3.93 -2.21 -10.23 -6.03 -14 -8.5 -3.77 -2.47 -11.58 -7.1 -17.35 -10.29 -13.6 -7.51 -14.31 -7.94 -24.53 -14.81 -4.76 -3.2 -9.4 -6.07 -10.31 -6.39 -.91 -.31 -3.91 -2.01 -6.66 -3.77 -8.13 -5.21 -15.33 -9.47 -27 -15.99 -6.05 -3.38 -14.6 -8.45 -19 -11.28 -7.32 -4.7 -21.76 -13.39 -32.17 -19.37 -8.45 -4.85 -26.02 -15.15 -32.33 -18.96 -3.57 -2.16 -9.02 -5.25 -12.1 -6.87 -3.08 -1.62 -6.91 -4.01 -8.5 -5.32 -1.59 -1.31 -5.94 -4.06 -9.67 -6.12 -3.72 -2.06 -9.35 -5.45 -12.5 -7.54 -3.15 -2.09 -9.32 -5.46 -13.71 -7.48 -4.39 -2.02 -8.89 -4.52 -10 -5.54 -1.11 -1.02 -3.6 -2.57 -5.52 -3.44 -1.93 -.87 -6.65 -3.63 -10.5 -6.14 -3.85 -2.51 -9.48 -5.75 -12.5 -7.2 -3.02 -1.45 -8.36 -4.85 -11.85 -7.56 -3.49 -2.7 -9.34 -6.24 -13 -7.87 -17.25 -7.65 -21.67 -10.93 -20.58 -15.29 .34 -1.36 -.19 -3.11 -1.4 -4.6 l-1.95 -2.41 -3.54 1.91 c-1.95 1.05 -5.21 3.31 -7.25 5.02 -3.37 2.83 -3.59 3.31 -2.39 5.22 1.07 1.71 1.09 2.87 .13 6.07 -1.61 5.36 -1.49 8.72 .43 12.52 3.59 7.12 9.76 11.7 15.75 11.7 2.66 0 4.69 1.05 8.75 4.51 2.9 2.48 6.8 4.93 8.66 5.44 1.86 .51 5.25 2.59 7.55 4.61 8.32 7.34 22.31 16.7 31.64 21.18 5.25 2.52 10.21 5.13 11.04 5.8 .82 .67 4.88 2.94 9 5.03 4.12 2.09 9.07 5.22 11 6.96 4.06 3.66 26.71 17.26 31.47 18.9 1.78 .61 4.76 2.39 6.63 3.96 1.87 1.57 12.63 8.32 23.9 15.01 11.27 6.69 22.52 13.41 25 14.93 2.48 1.52 12.6 7.54 22.5 13.37 16.58 9.77 45.8 27.17 173.5 103.27 60.55 36.09 89.48 53.35 104.29 61.89 14.82 8.54 15.52 8.36 19.64 9.56 7.7 2.24 21.93 2.07 29.96 -.38 5.9 -1.79 26.3 -13.51 52.61 -30.21 4.95 -3.14 12.15 -7.61 16 -9.93 8.13 -4.9 77.36 -47.47 114.5 -70.41 14.02 -8.66 33.38 -20.58 43 -26.49 9.62 -5.91 24.25 -14.91 32.5 -20.01 8.25 -5.1 19.72 -12.17 25.5 -15.7 5.78 -3.54 12.75 -7.83 15.5 -9.55 2.75 -1.71 10.85 -6.72 18 -11.14 7.15 -4.41 20.27 -12.54 29.16 -18.06 44.26 -27.49 63.67 -39.42 125.74 -77.28 24.55 -14.97 29.71 -19.24 31.55 -26.09 .58 -2.17 1.69 -4.47 2.47 -5.11 3.03 -2.51 -2.15 -12.4 -8.94 -17.08 -2.58 -1.78 -3.86 -2.66 -4.67 -2.78 -.81 -.11 -1.15 .56 -1.86 1.88z M1306.75 901.74 c-1.73 1.8 -2.75 3.97 -2.75 5.82 -0 4.44 -3.03 9.57 -7.5 12.69 -21.75 15.19 -36.03 23.76 -39.56 23.76 -1.02 0 -4.55 2.4 -7.84 5.33 -6.17 5.5 -19.66 14.48 -41.84 27.85 -7.01 4.23 -13.88 8.53 -15.25 9.56 -1.38 1.03 -10.15 6.75 -19.5 12.7 -9.35 5.95 -18.58 11.84 -20.5 13.08 -1.92 1.24 -11.15 7.09 -20.5 13 -9.35 5.91 -19.25 12.19 -22 13.96 -2.75 1.77 -16.25 10.33 -30 19.02 -13.75 8.69 -34.67 21.96 -46.5 29.48 -11.83 7.52 -29.6 18.76 -39.5 24.98 -9.9 6.22 -25.83 16.31 -35.4 22.43 -16.5 10.54 -35.21 22.26 -45.1 28.26 -2.48 1.5 -9.67 6.07 -16 10.17 -14.25 9.22 -22.25 14.3 -42 26.69 -8.52 5.35 -17.08 10.74 -19 11.99 -12.99 8.42 -20.32 12.76 -25.31 14.96 -7.26 3.21 -18.28 4.95 -25.57 4.04 -12.22 -1.53 -17.64 -4.22 -53.13 -26.43 -5.23 -3.27 -12.88 -7.84 -17 -10.16 -4.12 -2.32 -14.02 -8.26 -22 -13.2 -7.98 -4.94 -26.65 -16.3 -41.5 -25.23 -14.85 -8.93 -33.08 -19.97 -40.5 -24.53 -7.42 -4.56 -26.33 -16.03 -42 -25.48 -15.67 -9.46 -39.08 -23.62 -52 -31.46 -12.93 -7.85 -30.25 -18.33 -38.5 -23.3 -8.63 -5.2 -16.41 -10.66 -18.33 -12.87 -1.83 -2.11 -4.12 -3.83 -5.08 -3.83 -3.32 0 -27.57 -13.56 -36.69 -20.52 -2.5 -1.91 -5.03 -3.48 -5.6 -3.48 -.58 0 -4.71 -2.19 -9.17 -4.88 -4.47 -2.68 -11.72 -7 -16.12 -9.6 -4.4 -2.6 -9.02 -6 -10.27 -7.56 -1.47 -1.84 -4.17 -3.39 -7.66 -4.41 -2.97 -.86 -7.57 -3.28 -10.23 -5.37 -2.66 -2.09 -7.76 -5.17 -11.34 -6.84 -9.43 -4.41 -17.97 -10.14 -18.95 -12.73 -1.83 -4.81 -17.09 -15.03 -23.96 -16.05 -2.79 -.41 -5.65 -1.74 -7.78 -3.62 -1.86 -1.63 -4.32 -2.96 -5.47 -2.96 -1.3 0 -4.83 -2.85 -9.28 -7.48 -4.48 -4.66 -8.95 -8.26 -11.87 -9.55 -4.63 -2.05 -4.68 -2.13 -4.68 -6.8 0 -4.33 -2.03 -9.18 -3.84 -9.18 -2.17 0 -4.57 6.86 -4.54 13 .03 7.5 2.35 12.94 7.78 18.19 1.88 1.82 35.07 22.29 73.76 45.49 38.69 23.2 85.42 51.28 103.84 62.4 89.13 53.78 145.99 88.13 229.79 138.83 50.21 30.38 93.63 56.3 96.5 57.61 14.86 6.78 35 5.11 50.08 -4.15 8.97 -5.51 119.72 -75.37 173.63 -109.54 25.58 -16.21 61.35 -38.85 79.5 -50.32 42.45 -26.82 117.74 -74.45 141.5 -89.52 10.17 -6.45 34.03 -21.53 53 -33.5 18.97 -11.97 35.79 -22.95 37.38 -24.38 6.47 -5.88 9.57 -18.85 6.33 -26.43 l-1.2 -2.82 -2.75 2.87z" fill="#b3b6be" fill-rule="evenodd" stroke="#b3b6be" stroke-linejoin="round" stroke-width="0.80"/>
<path d="M1092.97 659.92 c-1.94 .38 -5.99 2.05 -9 3.72 -8.44 4.67 -42.19 26.27 -44.72 28.62 -1.98 1.84 -2.58 2.87 -2.14 2.99 .44 .12 1.94 -.66 4.14 -2.44 2.34 -1.89 8.68 -6.11 14.09 -9.37 5.41 -3.26 13.28 -8.21 17.5 -10.99 9.07 -5.98 11.34 -6.92 20.91 -8.6 5.81 -1.02 7.25 -1.63 7.25 -3.06 0 -1.92 -1.71 -2.1 -8.03 -.86z M1254.5 692.77 c-3.85 2.58 -19.38 12.83 -34.5 22.79 -25.19 16.58 -35.7 23.48 -69 45.28 -34.21 22.4 -208.06 136.38 -260.5 170.78 -40.24 26.41 -60.36 39.61 -71.66 46.58 -11.3 6.97 -13.79 7.7 -18.77 9.18 -6.23 1.85 -23.02 2.15 -30.07 .53 -8.62 -1.97 -12.96 -4.62 -82 -50.02 -14.58 -9.58 -31.9 -20.94 -38.5 -25.24 -10.13 -6.6 -47.77 -31.28 -155 -101.66 -9.35 -6.14 -37.48 -24.6 -62.5 -41.04 -60.92 -40.01 -66.02 -43.28 -66.63 -42.66 -2.73 2.73 16.85 17.93 36.37 28.23 9.31 4.91 12.22 6.81 24.07 15.71 5.67 4.26 13.54 9.61 17.5 11.91 3.96 2.29 8.68 5.45 10.49 7.02 1.81 1.57 6.08 4.26 9.49 5.98 3.41 1.72 11.1 6.55 17.1 10.74 17.29 12.08 32.45 22.32 38.64 26.11 14.15 8.67 28 17.84 30.98 20.53 1.38 1.24 4.3 3.19 6.5 4.34 2.2 1.15 6.7 4.13 10 6.61 3.3 2.49 8.7 5.83 12 7.43 3.3 1.6 8.56 4.86 11.7 7.25 11.26 8.56 26.12 18.29 36.3 23.77 4.4 2.37 9.43 5.66 11.18 7.31 4.86 4.6 12.73 9.97 24.55 16.75 5.9 3.39 14.77 9.24 19.7 13.01 13.32 10.19 20.51 14.87 28.44 18.53 4.84 2.24 10.64 6.34 18.11 12.79 12.95 11.2 16.65 13.21 42.78 23.29 12.72 4.91 18.35 4.33 35.24 -3.62 18.67 -8.79 25.25 -12.53 33.68 -19.13 9.76 -7.65 17.18 -12.55 23.82 -15.74 7.64 -3.67 19.11 -11.5 28.74 -19.63 3.75 -3.16 6.86 -5.07 22.26 -13.64 5.23 -2.91 11.3 -6.91 13.5 -8.88 2.2 -1.98 5.17 -4.47 6.61 -5.53 1.44 -1.07 5.19 -3.9 8.33 -6.29 3.15 -2.39 8.27 -5.5 11.39 -6.92 6.06 -2.76 25.33 -15.41 30.87 -20.29 1.85 -1.62 3.97 -2.95 4.71 -2.95 .74 0 4.21 -1.96 7.72 -4.35 3.5 -2.39 8.39 -5.26 10.87 -6.37 2.48 -1.11 8.3 -5.12 12.95 -8.9 8.52 -6.94 12.59 -9.61 23.55 -15.44 3.3 -1.76 7.78 -4.6 9.96 -6.31 2.18 -1.72 7.39 -5.37 11.59 -8.12 4.2 -2.75 9.52 -6.35 11.83 -8 15.64 -11.17 19.96 -14.05 31.13 -20.69 6.88 -4.09 15.2 -9.49 18.5 -11.99 3.3 -2.5 9.38 -6.72 13.5 -9.36 4.12 -2.64 9.49 -6.54 11.93 -8.66 2.43 -2.12 8.51 -5.89 13.5 -8.37 15.48 -7.7 26.17 -14.69 36.15 -23.61 6.82 -6.1 19.32 -13.64 29.68 -17.92 12.3 -5.07 32.67 -20.61 31.52 -24.04 -.83 -2.48 -3.23 -1.8 -10.28 2.92z M1261.41 769.32 c-8.85 5.6 -20.55 12.93 -26 16.3 -5.45 3.37 -20.26 12.54 -32.91 20.38 -12.65 7.84 -35.38 21.93 -50.5 31.31 -45.53 28.22 -70.78 43.91 -106.5 66.18 -18.7 11.66 -45.25 28.19 -59 36.73 -13.75 8.55 -58.61 36.5 -99.7 62.11 -41.08 25.61 -76.41 47.42 -78.5 48.46 -6.8 3.38 -13.55 4.7 -23.8 4.68 -15.06 -.04 -19.6 -1.9 -48.5 -19.92 -22.71 -14.16 -58.82 -36.63 -92.5 -57.55 -22.96 -14.26 -108.48 -67.43 -130 -80.82 -11 -6.84 -27.43 -17.05 -36.5 -22.69 -9.07 -5.63 -25.73 -15.99 -37 -23.01 -11.27 -7.02 -24.32 -15.12 -29 -17.99 -4.68 -2.87 -19.98 -12.32 -34 -21.01 -25.7 -15.91 -67.24 -41.56 -78.68 -48.59 l-6.18 -3.8 -2.51 1.98 -2.51 1.98 2.9 4.3 c1.95 2.89 4.31 4.87 7.2 6.05 10.23 4.18 14.96 7.2 28.3 18.01 3.46 2.81 10.48 6.97 26.03 15.43 6.07 3.3 14.62 8.44 19 11.41 20.77 14.09 30.22 20.15 35.47 22.75 2.48 1.22 5.85 3.23 7.5 4.47 1.65 1.23 5.02 3.27 7.48 4.52 2.46 1.26 6.06 3.53 8 5.06 1.94 1.53 6.67 4.48 10.52 6.55 3.85 2.07 8.8 5.18 11 6.9 2.2 1.72 7.38 5.11 11.5 7.54 4.12 2.43 11.37 6.9 16.11 9.93 18.57 11.92 21.25 13.63 26.13 16.74 2.78 1.77 6 4.07 7.16 5.12 1.15 1.05 6.6 4.48 12.1 7.62 5.5 3.14 12.25 7.41 15.01 9.48 2.75 2.07 6.58 4.57 8.5 5.55 1.92 .98 5.29 3.02 7.49 4.52 2.2 1.5 7.38 4.88 11.5 7.5 10.77 6.85 22.02 14.14 25.5 16.52 4.58 3.13 10.88 7.02 23.5 14.5 6.33 3.75 14.93 9.1 19.13 11.89 10.79 7.17 21.92 14.26 31.52 20.07 4.54 2.75 11.61 7.25 15.7 10 4.09 2.75 10.97 7.18 15.3 9.83 4.32 2.66 11.91 7.32 16.86 10.36 4.95 3.04 10.67 7.04 12.72 8.89 2.05 1.85 6.32 4.73 9.5 6.42 3.18 1.68 8.03 4.47 10.78 6.2 6.17 3.87 17.92 8.8 20.98 8.8 1.25 0 3.89 .68 5.86 1.5 5.17 2.16 18.68 1.94 26.15 -.42 14.07 -4.45 28.16 -11.13 34 -16.11 1.1 -.94 7.4 -4.94 14 -8.9 6.6 -3.96 13.58 -8.42 15.5 -9.92 1.92 -1.49 6.71 -4.63 10.64 -6.98 3.93 -2.34 7.98 -5.19 9 -6.32 1.02 -1.13 3.44 -2.87 5.36 -3.86 1.92 -.99 7.86 -4.65 13.2 -8.14 5.33 -3.49 12.96 -8.37 16.95 -10.85 3.99 -2.48 10.43 -6.56 14.3 -9.08 3.88 -2.52 8.49 -5.44 10.24 -6.5 12.73 -7.65 27.24 -16.77 35.19 -22.11 5.16 -3.47 9.71 -6.31 10.11 -6.31 .4 0 3.76 -2.24 7.46 -4.97 6.7 -4.95 21.34 -14.09 40.87 -25.53 5.63 -3.3 13.56 -8.36 17.61 -11.25 4.05 -2.89 7.91 -5.25 8.56 -5.25 .66 0 4.1 -2.2 7.64 -4.88 3.55 -2.68 8.9 -6.12 11.9 -7.62 3 -1.51 9.17 -5.16 13.72 -8.11 4.55 -2.95 10.17 -6.31 12.5 -7.47 4.18 -2.08 19.08 -11.48 31.06 -19.61 3.39 -2.3 10.67 -6.75 16.17 -9.89 5.5 -3.14 11.8 -6.91 14 -8.38 2.2 -1.47 6.48 -4.06 9.52 -5.74 5.51 -3.06 19.7 -12.88 23.48 -16.26 2.03 -1.81 24.02 -14.26 35 -19.81 3.3 -1.67 8.61 -5.33 11.81 -8.13 3.19 -2.8 6.22 -5.1 6.72 -5.1 .5 0 2.39 -1.29 4.19 -2.87 1.81 -1.58 6.43 -4.45 10.28 -6.39 6.06 -3.05 7.31 -4.15 9.3 -8.25 2.17 -4.47 2.2 -4.84 .6 -6.61 -.94 -1.03 -1.97 -1.85 -2.3 -1.81 -.33 .04 -7.84 4.65 -16.69 10.25z M1265.9 837.79 c-21.21 12.8 -86.28 51.78 -320.9 192.23 -55.83 33.42 -108.7 65.1 -117.5 70.4 -19.99 12.03 -26.01 14.11 -40.5 13.99 -8.39 -.07 -11.91 -.58 -17.5 -2.53 -4.73 -1.65 -47.68 -26.45 -132.5 -76.51 -167.16 -98.66 -344.99 -203.22 -350.76 -206.26 -1.96 -1.03 -2.87 -.77 -6.74 1.9 -4.37 3.01 -4.45 3.14 -2.91 5.49 .89 1.35 1.3 3.27 .95 4.37 -1.35 4.27 5.44 9.37 22.61 16.98 3.66 1.62 9.51 5.16 13 7.87 3.49 2.7 8.82 6.1 11.85 7.56 3.02 1.45 8.65 4.69 12.5 7.2 3.85 2.51 8.57 5.27 10.5 6.14 1.93 .87 4.41 2.41 5.52 3.44 1.11 1.02 5.61 3.52 10 5.54 4.39 2.02 10.56 5.39 13.71 7.48 3.15 2.09 8.78 5.48 12.5 7.54 3.72 2.06 8.07 4.81 9.67 6.12 1.59 1.31 5.42 3.7 8.5 5.32 3.08 1.62 8.53 4.71 12.1 6.87 6.31 3.81 23.88 14.11 32.33 18.96 10.41 5.97 24.85 14.67 32.17 19.37 4.4 2.82 12.95 7.9 19 11.28 11.67 6.52 18.87 10.78 27 15.99 2.75 1.76 5.75 3.46 6.66 3.77 .91 .31 5.55 3.19 10.31 6.39 10.22 6.87 10.94 7.3 24.53 14.81 5.77 3.19 13.58 7.82 17.35 10.29 3.77 2.47 10.07 6.29 14 8.5 10.59 5.95 16.62 9.5 21.65 12.75 2.48 1.6 6.98 4.29 10 5.98 7.5 4.18 10.94 6.29 22 13.51 9.36 6.1 18.21 11.52 30.34 18.57 3.39 1.97 9.99 5.98 14.66 8.91 9.28 5.81 16.01 9.84 26 15.6 3.58 2.06 7.85 4.76 9.5 6 5.75 4.32 27.05 14.54 33.5 16.08 8.16 1.94 30.23 1.28 36.76 -1.11 5.83 -2.13 30.15 -14.37 33.24 -16.73 5.16 -3.94 19.45 -12.83 20.64 -12.83 .68 0 5.2 -2.62 10.05 -5.83 4.85 -3.2 11.52 -7.31 14.82 -9.13 3.3 -1.81 8.48 -5.07 11.5 -7.23 5.13 -3.67 10.12 -6.68 41.5 -25.07 6.6 -3.87 15.15 -9.09 19 -11.62 3.85 -2.52 14.06 -8.87 22.69 -14.11 8.63 -5.24 21.03 -12.78 27.56 -16.77 6.53 -3.99 12.25 -7.25 12.7 -7.25 .45 0 5.15 -2.86 10.44 -6.35 5.29 -3.49 12.09 -7.7 15.12 -9.35 3.03 -1.65 8.88 -5.02 13 -7.5 11.07 -6.65 13.52 -8.09 24.5 -14.42 5.5 -3.17 11.67 -7.05 13.7 -8.62 2.04 -1.57 6.99 -4.57 11 -6.66 4.01 -2.09 14.83 -8.48 24.03 -14.2 9.2 -5.72 22.64 -13.78 29.86 -17.91 7.22 -4.12 14.54 -8.68 16.27 -10.11 1.73 -1.44 4.58 -3.35 6.34 -4.25 1.76 -.9 5.18 -2.98 7.61 -4.61 2.42 -1.64 6.39 -3.91 8.8 -5.05 7.02 -3.31 23.16 -12.83 36.39 -21.46 12.33 -8.05 26.53 -16.38 32.5 -19.08 20.29 -9.18 25.22 -13.63 25.55 -23.11 .18 -5.26 .11 -5.42 -4.03 -8.21 l-4.22 -2.85 -22.4 13.52z M1276.5 887.64 c-6.6 4.1 -12.66 8.1 -13.46 8.9 -1.38 1.38 -1.37 1.46 .25 1.46 2.04 0 2.3 3.61 .54 7.48 -2.91 6.38 -23.93 17.24 -30.74 15.88 -1.93 -.39 -3.64 .29 -6.49 2.55 -4.54 3.61 -5.6 3.79 -6.31 1.08 -.65 -2.48 -.81 -2.47 -4.34 .04 -1.61 1.15 -2.63 2.63 -2.33 3.4 1.37 3.57 -8.4 15.99 -15.3 19.44 -2.3 1.15 -4.43 2.49 -4.73 2.98 -.3 .49 -3.37 1.9 -6.82 3.14 -9.28 3.34 -13.9 4.99 -17.39 7.06 -3.49 2.07 -5.86 4.56 -10.64 9.56 -8.17 8.54 -10.07 9.96 -19.44 14.53 -5.71 2.78 -11.6 6.08 -13.09 7.33 -3.61 3.03 -33.45 21.8 -44.54 28.02 -4.86 2.73 -10.57 6.44 -12.69 8.25 -2.12 1.81 -5.49 3.98 -7.48 4.81 -1.99 .83 -6.12 3.55 -9.18 6.04 -3.05 2.49 -9.41 6.3 -14.13 8.48 -9.01 4.16 -19.87 11 -26.85 16.91 -5.27 4.46 -14.68 10.43 -19.85 12.58 -2.2 .92 -5.35 2.76 -7 4.11 -7.13 5.79 -30.05 19.33 -32.74 19.33 -.8 0 -2.31 .95 -3.36 2.1 -1.05 1.16 -3.25 2.79 -4.9 3.63 -1.65 .84 -6.38 4.18 -10.5 7.42 -13.05 10.26 -27.52 19.16 -34.74 21.36 -5.55 1.69 -21.03 11.64 -28.14 18.08 -3.09 2.8 -8.12 6.72 -11.17 8.72 -6.49 4.24 -20.26 10.69 -22.83 10.69 -.97 0 -2.76 1.05 -3.96 2.33 -1.2 1.28 -5.49 3.98 -9.52 6 -4.03 2.02 -8.19 4.62 -9.23 5.77 -3.45 3.81 -7.01 4.86 -18.59 5.48 -8.6 .46 -12.7 .23 -17.08 -.94 -3.34 -.89 -4.97 -1.32 -6.67 -2.21 -1.7 -.88 -3.46 -2.22 -7.07 -4.94 -6.6 -4.97 -19.3 -11.51 -22.35 -11.51 -3.2 0 -19.14 -9.32 -31.06 -18.16 -3.46 -2.57 -9.92 -6.49 -14.36 -8.72 -4.44 -2.23 -8.36 -4.52 -8.71 -5.09 -.35 -.57 -5 -3.15 -10.33 -5.74 -13.49 -6.55 -23.94 -12.84 -28.91 -17.4 -2.33 -2.13 -4.63 -3.88 -5.11 -3.88 -.49 0 -3.8 -2.15 -7.35 -4.77 -3.56 -2.63 -9.81 -6.3 -13.89 -8.16 -4.08 -1.86 -8.69 -4.44 -10.25 -5.73 -1.55 -1.28 -3.45 -2.34 -4.22 -2.34 -.76 0 -2.87 -1.29 -4.67 -2.87 -1.81 -1.58 -5.89 -4.09 -9.08 -5.6 -3.19 -1.5 -7.78 -4.24 -10.2 -6.09 -2.42 -1.85 -6.33 -4.34 -8.7 -5.54 -2.37 -1.2 -7 -4.31 -10.3 -6.92 -3.3 -2.61 -8.7 -6.17 -12 -7.93 -6.41 -3.41 -16.48 -9.35 -21.15 -12.48 -11.26 -7.56 -20.23 -13.03 -28.85 -17.61 -5.5 -2.92 -11.64 -6.7 -13.65 -8.39 -6.09 -5.15 -11.89 -9.02 -21.85 -14.6 -5.23 -2.93 -11.07 -6.5 -13 -7.94 -3.63 -2.71 -16.27 -10.31 -31 -18.62 -4.68 -2.64 -10.75 -6.8 -13.5 -9.24 -2.75 -2.45 -6.8 -5.31 -9 -6.35 -2.2 -1.05 -6.25 -3.23 -9 -4.84 -2.75 -1.61 -5.76 -2.94 -6.68 -2.96 -.93 -.01 -5.85 -2.13 -10.95 -4.7 -10.65 -5.37 -20.45 -14.01 -19.6 -17.28 .62 -2.37 -.61 -3.47 -10.49 -9.4 -8.77 -5.26 -10.17 -5.76 -10.26 -3.65 -.11 2.64 -8.3 1.21 -15.91 -2.78 -7.36 -3.85 -10.85 -7.95 -10.39 -12.21 .24 -2.21 -1.24 -3.4 -13.23 -10.64 -7.43 -4.48 -13.88 -8.03 -14.29 -7.79 -.41 .24 -.71 1.18 -.71 1.98 0 .8 -2.59 3.08 -5.75 5.07 -6.1 3.84 -12.25 9.17 -12.25 10.63 0 .48 .68 1.55 1.5 2.38 .91 .91 1.5 3.36 1.5 6.27 0 5.29 1.2 6.85 7 9.13 1.93 .76 6.9 4.88 11.06 9.16 4.82 4.96 8.34 7.79 9.72 7.79 1.18 0 3.65 1.31 5.47 2.92 2.1 1.84 5.16 3.25 8.3 3.82 6.25 1.14 21.45 10.81 21.45 13.65 0 2.77 10.51 10.22 21.5 15.24 3.3 1.51 8.18 4.46 10.84 6.55 2.66 2.1 7.23 4.51 10.17 5.36 3.35 .97 5.91 2.43 6.88 3.91 .85 1.3 5.5 4.71 10.33 7.57 4.83 2.86 12.44 7.4 16.91 10.09 4.47 2.68 8.6 4.88 9.17 4.88 .58 0 3.1 1.56 5.6 3.48 9.16 6.99 33.37 20.52 36.72 20.52 .98 0 2.95 1.53 4.38 3.4 1.59 2.09 8.66 7.06 18.3 12.86 8.64 5.2 26.28 15.89 39.21 23.74 12.92 7.85 36.33 22.01 52 31.47 15.67 9.46 34.58 20.93 42 25.48 7.42 4.56 25.65 15.6 40.5 24.53 14.85 8.93 33.52 20.28 41.5 25.23 7.98 4.94 17.88 10.88 22 13.2 4.12 2.32 11.77 6.89 17 10.16 35.48 22.2 40.91 24.9 53.13 26.43 7.29 .91 18.31 -.83 25.57 -4.04 4.98 -2.2 12.32 -6.54 25.31 -14.96 1.92 -1.25 10.48 -6.64 19 -11.99 19.75 -12.39 27.75 -17.47 42 -26.69 6.33 -4.09 13.52 -8.67 16 -10.17 9.89 -5.99 28.6 -17.72 45.1 -28.26 9.57 -6.11 25.5 -16.21 35.4 -22.43 9.9 -6.22 27.67 -17.46 39.5 -24.98 11.83 -7.52 32.75 -20.78 46.5 -29.48 13.75 -8.69 27.25 -17.25 30 -19.02 2.75 -1.77 12.65 -8.05 22 -13.96 9.35 -5.91 18.58 -11.76 20.5 -13 1.92 -1.24 11.15 -7.12 20.5 -13.08 9.35 -5.95 18.12 -11.67 19.5 -12.7 1.38 -1.03 8.24 -5.33 15.25 -9.56 22.19 -13.37 35.68 -22.35 41.84 -27.85 3.29 -2.93 6.82 -5.33 7.84 -5.33 2.74 0 11.9 -5.07 24.46 -13.53 6.11 -4.12 12.23 -8.24 13.6 -9.16 7.37 -4.95 11 -10.27 11 -16.12 0 -1.61 .88 -3.68 2 -4.69 1.1 -1 2 -2.2 2 -2.68 0 -2.07 -8.5 -9.81 -14 -12.74 -3.3 -1.76 -6 -3.82 -6 -4.58 0 -2.82 -1.77 -2.14 -13.5 5.14z" fill="#989ca6" fill-rule="evenodd" stroke="#989ca6" stroke-linejoin="round" stroke-width="0.80"/>
<path d="M279.48 695.64 c-5.79 3.84 -5.81 3.86 -4.33 6.22 1.16 1.85 1.11 2.44 -.4 4.99 -1.68 2.84 -1.65 2.97 1.25 6.98 1.63 2.25 4.24 4.75 5.81 5.56 1.56 .81 3.45 2.21 4.2 3.11 .75 .9 3.19 2.57 5.42 3.71 2.23 1.14 6.09 3.74 8.57 5.78 2.48 2.04 7.44 5.42 11.01 7.52 3.57 2.1 8.56 5.3 11.09 7.11 2.52 1.82 6.8 4.24 9.5 5.4 2.7 1.15 6.34 3.48 8.09 5.16 1.75 1.69 5.9 4.92 9.21 7.19 22.78 15.56 33.7 22.62 34.97 22.62 .58 0 2.54 1.26 4.35 2.81 1.81 1.55 5.08 3.84 7.28 5.1 2.2 1.26 5.8 3.6 8 5.2 2.2 1.6 12.55 8.53 23 15.38 10.45 6.85 21.2 14.16 23.89 16.24 11.17 8.62 22.42 16.34 27.11 18.61 2.75 1.33 6.57 4.09 8.5 6.13 1.93 2.04 5.52 4.8 8 6.14 2.48 1.33 6.75 3.99 9.5 5.91 2.75 1.92 7.25 5.05 10 6.95 2.75 1.91 6.58 4.63 8.5 6.05 13.05 9.64 16.7 12.2 18.18 12.75 .92 .34 1.82 1.89 2 3.43 .3 2.58 .73 2.85 5.32 3.31 5.61 .57 9.85 3.15 13.9 8.46 2 2.62 3.45 3.54 5.6 3.54 2.14 0 3.65 .94 5.7 3.54 3.25 4.12 16.01 13.9 20.7 15.85 1.77 .74 4.69 3.2 6.49 5.47 1.8 2.27 3.87 4.13 4.61 4.13 .74 0 2.8 1.24 4.58 2.75 3.71 3.15 8.03 5.88 15.97 10.12 3.06 1.63 6.13 3.66 6.83 4.5 1.61 1.95 28.4 18.63 29.91 18.63 .62 0 2.6 1.27 4.41 2.83 4.03 3.47 6.28 4.93 46.78 30.24 28.84 18.03 42.15 26.51 50.52 30.49 8.37 3.98 11.79 3.45 20.86 3.45 8.86 0 13.17 .05 19.5 -2.55 6.33 -2.6 14.68 -7.86 31.62 -18.47 6.05 -3.79 12.35 -7.74 14 -8.78 1.65 -1.04 7.5 -4.72 13 -8.18 5.5 -3.46 13.23 -8.37 17.17 -10.91 3.95 -2.54 8.45 -5.35 10 -6.24 7.32 -4.2 34.05 -21.23 35.83 -22.82 1.1 -.98 4.25 -3.04 7 -4.58 10.87 -6.08 35.9 -22.02 44.5 -28.34 5.77 -4.24 13.67 -9.01 16 -9.65 1.38 -.38 3.94 -2.22 5.7 -4.09 1.76 -1.87 4.01 -3.41 5 -3.42 2.97 -.03 11.3 -5.84 12.35 -8.6 1.22 -3.22 3.88 -5.44 11.23 -9.41 3.17 -1.71 6.74 -4.42 7.91 -6.01 1.19 -1.61 5.29 -4.4 9.23 -6.27 3.9 -1.86 8.59 -4.91 10.43 -6.78 7.92 -8.07 11.65 -11.13 16.84 -13.76 2.3 -1.17 4.47 -2.59 4.82 -3.16 .35 -.57 3.69 -2.57 7.41 -4.45 3.72 -1.87 7.54 -4.58 8.48 -6.02 .94 -1.44 2.93 -3.14 4.41 -3.79 1.48 -.64 4.35 -2.54 6.36 -4.2 2.02 -1.67 5.84 -4.16 8.5 -5.53 2.66 -1.38 7.2 -4.66 10.09 -7.31 2.89 -2.64 7.31 -5.72 9.83 -6.83 2.52 -1.12 6.29 -3.73 8.37 -5.81 2.08 -2.08 5.98 -4.59 8.67 -5.59 2.69 -.99 7.36 -3.76 10.38 -6.15 11.7 -9.24 14.76 -11.57 22.5 -17.15 10.14 -7.31 14.84 -10.16 16.74 -10.16 .83 0 6.4 -3.6 12.38 -8.01 16.29 -11.99 35.3 -24.61 40.38 -26.79 2.47 -1.07 5.37 -2.91 6.43 -4.1 1.06 -1.19 6.24 -4.46 11.5 -7.27 12.69 -6.78 15.18 -8.74 21.15 -16.62 4.38 -5.78 4.97 -7.11 4.45 -9.93 -.34 -1.82 -.09 -4.23 .58 -5.47 1 -1.86 .9 -2.39 -.58 -3.26 -.97 -.57 -3.31 -2.06 -5.19 -3.29 -1.88 -1.24 -3.76 -2.25 -4.18 -2.25 -.42 0 -2.03 2.02 -3.59 4.48 -4.03 6.37 -10.01 10.78 -36.07 26.62 -13.36 8.11 -24.04 15.01 -31.5 20.35 -4.12 2.95 -13.58 9.31 -21 14.14 -15.57 10.12 -25.47 16.7 -39.41 26.18 -5.45 3.71 -11.99 7.88 -14.52 9.27 -2.54 1.39 -19 12.16 -36.59 23.93 -17.59 11.77 -36.16 24.13 -41.27 27.47 -5.11 3.34 -20.63 13.51 -34.5 22.61 -13.87 9.1 -26.66 17.42 -28.42 18.5 -1.77 1.08 -9.64 6.29 -17.5 11.57 -7.86 5.29 -22.35 14.96 -32.19 21.5 -9.85 6.54 -18.4 12.24 -19 12.68 -.6 .44 -5.86 3.81 -11.69 7.5 -9.01 5.7 -43.56 28.68 -54.9 36.51 -1.92 1.33 -6.2 4.12 -9.5 6.21 -3.3 2.09 -6.92 4.62 -8.04 5.62 -2.78 2.49 -23.04 14.01 -33.46 19.03 -17.29 8.33 -34.59 9.13 -50.5 2.35 -8.51 -3.63 -23.67 -11.65 -27.89 -14.75 -2.43 -1.79 -7.73 -5.4 -11.77 -8.02 -4.04 -2.62 -11.4 -7.69 -16.35 -11.26 -4.95 -3.57 -10.8 -7.44 -13 -8.61 -2.2 -1.16 -5.8 -3.55 -8 -5.3 -2.2 -1.75 -6.25 -4.46 -9 -6.02 -2.75 -1.56 -7.7 -4.81 -11 -7.21 -3.3 -2.41 -11.85 -8.27 -19 -13.04 -7.15 -4.76 -18.34 -12.29 -24.87 -16.73 -6.53 -4.44 -13.28 -8.93 -15 -9.98 -1.72 -1.05 -12.13 -7.84 -23.13 -15.09 -11 -7.25 -27.42 -18.05 -36.5 -23.99 -9.08 -5.94 -19.55 -12.88 -23.29 -15.41 -3.73 -2.53 -8.23 -5.47 -10 -6.53 -1.77 -1.06 -13.79 -8.95 -26.71 -17.54 -12.93 -8.59 -25.98 -17.07 -29 -18.86 -3.02 -1.79 -10.23 -6.58 -16 -10.65 -5.77 -4.07 -18.38 -12.41 -28 -18.53 -30.23 -19.23 -39.94 -25.59 -42.25 -27.72 -1.24 -1.13 -4.08 -2.98 -6.32 -4.1 -2.24 -1.12 -6.04 -3.68 -8.44 -5.69 -2.4 -2.01 -6.65 -4.8 -9.43 -6.21 -2.78 -1.41 -7.54 -4.23 -10.56 -6.27 -3.02 -2.04 -10.86 -7.26 -17.4 -11.61 -6.55 -4.35 -12.85 -8.53 -14 -9.31 -1.15 -.77 -4.12 -2.73 -6.6 -4.35 -2.48 -1.62 -6.76 -5.38 -9.52 -8.35 l-5.02 -5.4 -3.98 2.64z M1296.04 773.93 c-.57 1.06 -1.04 2.76 -1.04 3.78 0 3.29 -3.12 6.42 -9.38 9.4 -7.2 3.43 -19.17 10.77 -26.62 16.32 -2.9 2.16 -8.48 5.55 -12.39 7.53 -3.91 1.98 -10.91 6.06 -15.55 9.07 -4.64 3.01 -10.34 6.6 -12.68 7.97 -2.33 1.38 -7.69 4.75 -11.89 7.5 -18.72 12.23 -21.22 13.8 -24.99 15.72 -2.2 1.12 -7.15 4.02 -11 6.44 -3.85 2.43 -11.78 7.43 -17.62 11.13 -15.32 9.68 -19.33 12.17 -27.81 17.26 -4.16 2.5 -12.75 7.9 -19.07 12 -6.33 4.1 -12.7 8.13 -14.17 8.96 -3.03 1.7 -10.15 6.27 -26 16.7 -6.02 3.96 -14.63 9.26 -19.14 11.78 -4.5 2.52 -10.89 6.34 -14.19 8.49 -3.3 2.16 -7.67 4.85 -9.72 5.98 -2.05 1.13 -5.2 3.32 -7 4.87 -1.8 1.54 -5.53 4.08 -8.28 5.63 -2.75 1.55 -6.47 3.91 -8.26 5.25 -1.79 1.33 -8.77 5.58 -15.5 9.45 -6.73 3.86 -14.49 8.71 -17.24 10.79 -2.75 2.07 -6.39 4.48 -8.07 5.35 -1.69 .87 -3.68 2.32 -4.43 3.23 -.75 .9 -3.18 2.57 -5.41 3.71 -2.23 1.14 -9.16 5.49 -15.4 9.68 -6.24 4.19 -13.45 8.9 -16.01 10.48 -2.57 1.58 -6.24 4.1 -8.17 5.62 -1.92 1.51 -5.52 3.77 -8 5.02 -2.48 1.25 -5.85 3.37 -7.5 4.72 -3.98 3.25 -32.95 22.17 -42.67 27.88 -4.23 2.48 -9.32 5.81 -11.32 7.39 -4.86 3.86 -26.43 14.4 -34.51 16.86 -7.4 2.25 -26 3.49 -33 2.2 -13.3 -2.46 -41.41 -16.66 -60.5 -30.55 -13.91 -10.12 -21.42 -15.09 -28.5 -18.85 -3.58 -1.9 -8.25 -4.84 -10.39 -6.55 -2.14 -1.71 -4.33 -3.1 -4.88 -3.1 -.55 0 -2.62 -1.37 -4.61 -3.05 -4.9 -4.13 -15.23 -11.05 -23.12 -15.49 -3.58 -2.01 -8.79 -5.37 -11.6 -7.48 -4.27 -3.2 -16.46 -10.87 -30.76 -19.35 -1.73 -1.03 -7.64 -4.81 -13.14 -8.41 -5.5 -3.6 -12.25 -7.98 -15 -9.74 -12.58 -8.05 -38.39 -24.94 -42 -27.48 -2.2 -1.55 -7.6 -4.96 -12 -7.58 -4.4 -2.62 -12.95 -8 -19 -11.94 -6.05 -3.94 -12.35 -7.92 -14 -8.83 -1.65 -.91 -5.74 -3.57 -9.1 -5.9 -10.77 -7.49 -66.12 -42.57 -76.94 -48.76 -3.2 -1.83 -9.9 -5.96 -14.89 -9.17 -4.99 -3.21 -11.26 -7.07 -13.93 -8.57 -2.67 -1.5 -7.62 -4.58 -11 -6.84 -3.38 -2.26 -8.61 -5.35 -11.64 -6.86 -3.02 -1.51 -7.75 -4.43 -10.51 -6.49 -2.75 -2.06 -6.35 -4.44 -8 -5.29 -1.65 -.85 -5.4 -3.17 -8.34 -5.15 -2.94 -1.98 -5.93 -3.6 -6.64 -3.6 -.71 0 -3.74 -2.02 -6.75 -4.5 -3 -2.47 -9.92 -6.91 -15.36 -9.86 -6.86 -3.72 -10.58 -6.41 -12.11 -8.75 -2.58 -3.97 -3.71 -5.85 -4.68 -6.44 -.97 -.59 -1.77 .11 -3.71 1.31 -4.78 2.95 -7.45 6.01 -9.77 11.2 l-1.99 4.45 2.93 1.78 c2.24 1.36 2.93 2.52 2.93 4.93 -0 7.43 3.72 10.41 38 30.39 10.18 5.93 31.1 18.2 46.5 27.25 15.4 9.06 33.4 19.63 40 23.5 6.6 3.87 18.98 11.16 27.5 16.2 8.52 5.05 21.57 12.72 29 17.04 7.43 4.33 18.9 11.09 25.5 15.03 6.6 3.94 20.77 12.35 31.5 18.7 10.73 6.34 32.77 19.39 49 28.99 16.23 9.6 37.38 22.09 47 27.75 9.62 5.66 28.52 16.8 42 24.76 13.48 7.96 30.8 18.19 38.5 22.74 7.7 4.54 23.9 14.11 36 21.25 12.1 7.15 24.25 14.26 27 15.81 2.75 1.55 9.45 5.52 14.88 8.82 11.48 6.97 18.33 9.48 28.25 10.32 9.2 .78 18.37 -.97 26.49 -5.06 5.43 -2.73 180.74 -107.56 190.89 -114.13 2.82 -1.83 189.42 -113.7 276.5 -165.76 11 -6.58 21.94 -13.73 24.3 -15.9 3.64 -3.34 4.76 -3.85 7.25 -3.3 l2.95 .65 0 -7.11 c0 -8.55 -2.88 -15.15 -8.69 -19.95 -4.37 -3.6 -5.84 -3.84 -7.27 -1.17z M260.49 846.38 c-4.35 6.64 -4.67 16.76 -.77 24.47 3.06 6.05 7.55 10.06 17.78 15.89 7.46 4.25 47.65 27.96 100 58.99 17.6 10.43 68.9 40.79 114 67.46 45.1 26.67 101.58 60.11 125.5 74.3 23.92 14.2 56.77 33.67 73 43.28 16.23 9.61 39.4 23.45 51.5 30.76 27.11 16.37 31.01 17.87 46.5 17.9 8.05 .02 13.17 -.49 17.06 -1.68 3.14 -.96 4.71 -1.44 14.89 -7.47 10.18 -6.02 28.96 -17.59 66.55 -40.73 71.35 -43.92 114.25 -70.3 166 -102.07 23.1 -14.18 61.12 -37.57 84.5 -51.97 23.38 -14.4 67.25 -41.41 97.5 -60 30.25 -18.6 57.63 -35.44 60.84 -37.42 9.26 -5.71 11.8 -8.18 14.31 -13.85 2.31 -5.22 3.35 -16.26 1.54 -16.26 -1.96 0 -4.13 2.82 -5.15 6.7 -.6 2.31 -2.24 5.57 -3.64 7.23 -1.4 1.66 -13.07 9.45 -25.94 17.3 -62.05 37.85 -81.52 49.81 -125.79 77.31 -8.89 5.52 -22.01 13.65 -29.16 18.06 -7.15 4.41 -15.25 9.43 -18 11.14 -2.75 1.71 -9.72 6.01 -15.5 9.55 -5.78 3.54 -17.25 10.61 -25.5 15.7 -8.25 5.1 -22.88 14.11 -32.5 20.01 -9.62 5.91 -28.98 17.83 -43 26.49 -37.14 22.94 -106.37 65.51 -114.5 70.41 -3.85 2.32 -11.05 6.79 -16 9.93 -26.31 16.7 -46.71 28.41 -52.61 30.21 -8.03 2.44 -22.26 2.62 -29.96 .38 -4.12 -1.2 -4.83 -1.02 -19.64 -9.56 -14.82 -8.54 -43.74 -25.8 -104.29 -61.89 -127.7 -76.1 -156.92 -93.5 -173.5 -103.27 -9.9 -5.84 -20.02 -11.85 -22.5 -13.37 -2.48 -1.52 -13.73 -8.24 -25 -14.93 -11.27 -6.69 -22.03 -13.45 -23.9 -15.01 -1.87 -1.57 -4.85 -3.35 -6.63 -3.96 -4.76 -1.64 -27.41 -15.24 -31.47 -18.9 -1.93 -1.74 -6.88 -4.87 -11 -6.96 -4.12 -2.09 -8.18 -4.35 -9 -5.03 -.82 -.67 -5.79 -3.29 -11.04 -5.8 -9.33 -4.48 -23.31 -13.84 -31.64 -21.18 -2.3 -2.02 -5.69 -4.1 -7.55 -4.61 -1.86 -.51 -5.75 -2.96 -8.66 -5.44 -4.23 -3.61 -6.03 -4.51 -9.05 -4.51 -4.82 0 -9.86 -3.36 -12.78 -8.53 -2.55 -4.51 -2.79 -7.53 -1.09 -13.88 .96 -3.6 .94 -4.73 -.12 -6.01 -1.79 -2.15 -2.75 -1.99 -4.58 .8z" fill="#cecfd4" fill-rule="evenodd" stroke="#cecfd4" stroke-linejoin="round" stroke-width="0.80"/>
<path d="M.13 1421.75 l-.13 147.25 140.67 0 c77.37 0 140.45 -.21 140.2 -.47 -.26 -.26 -6.7 -1.16 -14.32 -2.01 -39.74 -4.41 -82.05 -19.43 -121.05 -43 -25.14 -15.19 -61.54 -47.42 -78.51 -69.53 -1.9 -2.47 -3.91 -5.05 -4.47 -5.72 -16.67 -19.97 -36.54 -57.85 -46.93 -89.44 -8.01 -24.37 -11.42 -42.08 -14.49 -75.35 -.48 -5.24 -.89 52.47 -.97 138.25z" fill="url(#grad12)" fill-rule="evenodd" stroke="none"/>
<path d="M1567.55 1289.75 c-1.85 20.34 -5.24 39.22 -10.19 56.75 -1.4 4.95 -2.88 10.35 -3.3 12 -4.35 17.32 -22.83 55.22 -37.04 76 -9.4 13.74 -18.88 25.26 -31.49 38.29 -12.64 13.05 -32.54 31.02 -40.09 36.21 -25.66 17.61 -41.12 26.37 -65.43 37.03 -23.9 10.49 -52.02 17.72 -81.44 20.93 -5.47 .6 -10.16 1.3 -10.42 1.56 -.26 .26 62.83 .47 140.19 .47 l140.67 0 0 -143 c0 -78.65 -.19 -143 -.42 -143 -.23 0 -.7 3.04 -1.03 6.75z" fill="url(#grad11)" fill-rule="evenodd" stroke="none"/>
<path d="M.1 128.25 c.09 111.81 .27 127.16 1.46 119.75 1.09 -6.81 1.37 -32.34 1.4 -128.25 .04 -105.8 -.13 -119.75 -1.46 -119.75 -1.33 0 -1.49 14.87 -1.4 128.25z M1321 1.56 c7.37 1.16 8.69 1.14 9.96 -.11 1.28 -1.27 .21 -1.43 -8.5 -1.33 l-9.96 .11 8.5 1.33z M.03 1426.25 c-.03 128.5 .12 142.75 1.53 142.75 1.4 0 1.53 -13.94 1.25 -140.75 -.24 -108.52 -.58 -141.21 -1.53 -142.75 -.96 -1.58 -1.23 28.01 -1.25 140.75z" fill="url(#grad11)" fill-rule="evenodd" stroke="none"/>
<path d="M1182.07 546.88 c-2.12 .59 -.71 1.69 11 8.56 20.25 11.89 35.56 21.06 66.93 40.09 15.67 9.51 30.26 18.34 32.41 19.63 2.15 1.29 5.47 3.38 7.39 4.65 l3.48 2.31 3.36 -3.26 c3.97 -3.84 4 -4.08 1.22 -7.85 -1.89 -2.56 -2 -3.26 -.9 -5.9 .68 -1.65 .95 -3.47 .59 -4.06 -.83 -1.34 -4.1 -1.37 -6.57 -.04 -1.56 .84 -2.21 .53 -3.62 -1.75 -4.35 -7.01 -9.24 -9.94 -7.94 -4.77 .51 2.03 .26 2.5 -1.33 2.5 -1.08 0 -3.57 .95 -5.54 2.11 l-3.57 2.11 -5.73 -2.34 c-3.15 -1.29 -6.24 -2.23 -6.86 -2.09 -1.31 .29 -2.34 -2.94 -2.36 -7.4 -.01 -2.88 -4.21 -9.55 -7.35 -11.66 -.64 -.43 -4.15 -.51 -7.79 -.17 -6.88 .64 -10.95 -.53 -13.82 -3.99 -.71 -.86 -2.2 -1.57 -3.31 -1.57 -2.62 0 -11.63 -5.18 -14.7 -8.44 -1.32 -1.41 -3.19 -2.56 -4.16 -2.56 -2.43 0 -7.75 -3.55 -14.6 -9.74 -6.04 -5.46 -9.25 -6.33 -16.23 -4.38z" fill="url(#grad1)" fill-rule="evenodd" stroke="none"/>
<path d="M1290.83 1565.5 c-.3 .3 -64.67 .53 -143.06 .51 -125.9 -.03 -142.66 .15 -143.77 1.48 -1.12 1.35 14.25 1.5 141.12 1.39 78.3 -.07 143.7 -.4 145.32 -.75 1.62 -.35 2.89 -1.07 2.82 -1.61 -.14 -1.15 -1.66 -1.8 -2.43 -1.03z M280.69 1566.64 c-1.82 1.82 1.83 2.36 15.99 2.36 13.72 0 15.42 -.18 14.32 -1.5 -1 -1.2 -4.04 -1.5 -15.46 -1.5 -7.82 0 -14.5 .29 -14.85 .64z" fill="url(#grad1)" fill-rule="evenodd" stroke="none"/>
<path d="M913.25 822.18 c-1.79 .48 -3.25 1.14 -3.25 1.46 0 .32 .65 .33 1.44 .03 .79 -.3 1.64 -.01 1.88 .64 .31 .83 .99 .67 2.26 -.53 2.35 -2.24 1.7 -2.68 -2.32 -1.59z" fill="#b3b6be" fill-rule="evenodd" stroke="none"/>
<path d="M908.54 824.75 c-.6 1.55 1.81 2.71 3.94 1.89 2.04 -.78 .92 -3.22 -1.48 -3.22 -1.07 0 -2.18 .6 -2.46 1.32z" fill="#989ca6" fill-rule="evenodd" stroke="none"/>
<path d="M1546.2 467.2 c-1.81 1.81 -1.47 7.35 .55 8.88 .8 .61 1.21 .91 1.28 .9 .07 -.01 -.21 -.33 -.78 -.97 -1.59 -1.78 -1.62 -7.23 -.05 -8.8 .66 -.66 .98 -1.2 .7 -1.2 -.28 0 -1.04 .54 -1.7 1.2z" fill="#6a7486" fill-rule="evenodd" stroke="#6a7486" stroke-linejoin="round" stroke-width="0.80"/>
<path d="M739.15 489.34 c-2.66 2.83 -2.12 4.67 2.37 8.1 2.36 1.8 3.79 2.6 4.06 2.48 .27 -.12 -.61 -1.15 -2.85 -3 -4.32 -3.56 -4.51 -4.47 -1.55 -7.61 1.2 -1.27 1.72 -2.31 1.17 -2.31 -.55 0 -1.99 1.06 -3.2 2.34z" fill="#db6721" fill-rule="evenodd" stroke="none"/>
<path d="M640.65 549.83 c-.91 1.01 -1.65 2.34 -1.65 2.97 0 1.26 10.79 9.75 11.5 9.04 .25 -.25 -1.79 -2.12 -4.53 -4.16 -5.25 -3.92 -6.1 -6.1 -3.22 -8.28 .96 -.73 1.26 -1.34 .65 -1.36 -.6 -.02 -1.84 .79 -2.75 1.8z" fill="#d46e31" fill-rule="evenodd" stroke="none"/>
<path d="M548.05 605.53 c-3.36 2.14 -4.83 3.27 -4.57 3.36 .27 .09 2.28 -.86 5.9 -2.91 3.3 -1.86 6.07 -2.78 7.23 -2.41 l1.88 .61 -1.5 -1.08 c-2.22 -1.6 -2.98 -1.39 -8.95 2.42z" fill="#d66927" fill-rule="evenodd" stroke="none"/>
<path d="M1101 660.44 c0 1.12 .99 1.56 3.48 1.56 1.91 0 6.48 1.13 10.15 2.51 3.67 1.38 6.84 2.35 7.04 2.15 .9 -.9 -11.65 -6.5 -15.92 -7.11 -3.93 -.56 -4.75 -.41 -4.75 .88z" fill="#828691" fill-rule="evenodd" stroke="none"/>
<path d="M732.5 727.06 c2.2 .46 6.25 .83 9 .83 2.75 0 6.8 -.37 9 -.83 2.9 -.6 .41 -.83 -9 -.83 -9.41 0 -11.9 .23 -9 .83z" fill="#d26826" fill-rule="evenodd" stroke="none"/>
<path d="M727.29 776.74 c3.74 .19 9.59 .19 13 -0 3.41 -.19 .36 -.35 -6.79 -.35 -7.15 0 -9.94 .16 -6.21 .35z" fill="#d56e2f" fill-rule="evenodd" stroke="none"/>
<path d="M902.42 821.13 c-.71 1.15 5.53 3.82 7.32 3.14 1.77 -.68 .96 -1.38 -3.27 -2.84 -2.19 -.75 -3.7 -.86 -4.05 -.3z" fill="#91949e" fill-rule="evenodd" stroke="none"/>
<path d="M804.86 861.45 c-1.98 1.35 -3.89 3.18 -4.23 4.07 -.78 2.03 .77 5.03 3.04 5.9 1.63 .63 1.64 .57 .03 -1.21 -2.56 -2.82 -2.07 -4.76 2.03 -8.14 2.24 -1.85 3.26 -2.84 3.1 -2.96 -.16 -.11 -1.5 .65 -3.97 2.34z" fill="#636979" fill-rule="evenodd" stroke="none"/>
</svg>